<svg width="48" height="48" viewBox="0 0 48 48" fill="none" xmlns="http://www.w3.org/2000/svg">
<rect width="48" height="48" rx="8" fill="#121212"/>
<path d="M44 23.0115C43.5602 23.0115 43.0631 23.0167 42.4819 23.2164C41.9366 23.4039 41.2382 23.7928 40.4908 24.6721L40.4183 24.7588C39.262 26.1628 38.1863 27.0942 37.0974 27.6635C35.9776 28.2488 34.9489 28.3963 34 28.3963C33.0511 28.3963 32.0225 28.2489 30.9027 27.6635C29.8478 27.1121 28.8052 26.2208 27.6898 24.8892L27.5817 24.7589C26.807 23.8182 26.081 23.4101 25.5181 23.2166C25.0096 23.0418 24.5653 23.016 24.1676 23.0123L24 23.0117C23.5602 23.0117 23.0631 23.0169 22.4819 23.2166C21.9366 23.404 21.2382 23.7929 20.4908 24.6723L20.4183 24.7589C19.262 26.163 18.1862 27.0943 17.0973 27.6635C15.9775 28.2489 14.9489 28.3963 14 28.3963C13.0512 28.3963 12.0225 28.2489 10.9027 27.6636C9.84782 27.1122 8.8052 26.2208 7.68982 24.8892L7.58168 24.7589C6.80701 23.8182 6.08103 23.4101 5.5181 23.2166C4.93694 23.0169 4.43976 23.0117 4 23.0117V19.9348C4.48332 19.9348 5.42053 19.9296 6.5181 20.3068C7.63391 20.6903 8.83106 21.4359 9.95684 22.8029L10.0497 22.9147C11.0023 24.0519 11.7435 24.6312 12.328 24.9367C12.9006 25.236 13.4104 25.3194 14 25.3194C14.5896 25.3194 15.0994 25.236 15.6719 24.9367C16.2753 24.6213 17.0456 24.0142 18.0432 22.8028L18.096 22.7393C19.2063 21.4126 20.3835 20.6842 21.4819 20.3067C22.5795 19.9295 23.5167 19.9347 24 19.9347L24.202 19.9353C24.7201 19.9394 25.5577 19.9767 26.5181 20.3067C27.6339 20.6902 28.8311 21.4358 29.9568 22.8028L30.0497 22.9147C31.0023 24.0518 31.7435 24.6311 32.328 24.9367C32.9006 25.2359 33.4104 25.3193 34 25.3193C34.5896 25.3193 35.0993 25.236 35.6719 24.9367C36.2753 24.6212 37.0456 24.0141 38.0432 22.8028L38.096 22.7391C39.2063 21.4125 40.3835 20.684 41.4819 20.3066C42.5795 19.9294 43.5167 19.9346 44 19.9346V23.0115Z" fill="url(#paint0_linear_8380_33)"/>
<defs>
<linearGradient id="paint0_linear_8380_33" x1="4" y1="24.3522" x2="44" y2="24.3522" gradientUnits="userSpaceOnUse">
<stop stop-color="#FFB600"/>
<stop offset="0.331731" stop-color="#FFF200"/>
<stop offset="0.721154" stop-color="#9AEBA3"/>
<stop offset="1" stop-color="#00F4EE"/>
</linearGradient>
</defs>
</svg>
