<svg width="48" height="48" viewBox="0 0 48 48" fill="none" xmlns="http://www.w3.org/2000/svg">
<rect width="48" height="48" rx="8" fill="#C7BBFF"/>
<g clip-path="url(#clip0_8228_3678)">
<path d="M16.6197 25.5824H19.6929V27.5636H14.2946V20.1507H16.6165V25.5824H16.6197ZM35.2979 20.1507V22.1319H37.4802V27.5604H39.8147V22.1319H42V20.1507H35.2979ZM9.94551 27.7143C7.57075 27.7143 6 26.3359 6 23.843C6 21.4411 7.57075 20 9.94551 20C11.8391 20 13.3478 21.0392 13.6427 22.9231H11.0599C10.973 22.1947 10.6067 21.8556 9.87101 21.8556C8.87455 21.8556 8.56412 22.584 8.56412 23.843C8.56412 25.1334 8.87144 25.8618 9.87101 25.8618C10.6036 25.8618 11.0165 25.5196 11.1313 24.7944H13.6985C13.3633 26.7221 11.8391 27.7143 9.94551 27.7143ZM24.9731 20.1507H27.3201V24.7912C27.3201 26.7944 25.9851 27.7143 23.7439 27.7143C21.515 27.7143 20.1802 26.7944 20.1802 24.7912V20.1507H22.527V24.7912C22.527 25.4725 23.0672 25.7708 23.7439 25.7708C24.4764 25.7708 24.9731 25.4443 24.9731 24.7912V20.1507ZM31.3648 22.6876C30.8775 22.5871 30.4398 22.4427 30.4398 22.1727C30.4398 21.865 30.6787 21.6452 31.2935 21.6452C31.9297 21.6452 32.1937 21.9466 32.2526 22.5212H34.7484C34.6461 20.7284 33.2057 20 31.2904 20C29.5613 20 28.1053 20.741 28.1053 22.3171C28.1053 23.8462 29.1888 24.3046 30.3187 24.6217C30.6633 24.719 31.191 24.8289 31.6349 24.9168C32.1658 25.0235 32.473 25.1272 32.473 25.4945C32.473 25.8242 32.0912 26.0471 31.5449 26.0471C30.9891 26.0471 30.5639 25.8273 30.4491 25.0173H27.9253C28.0432 26.9199 29.4619 27.7143 31.5481 27.7143C33.2926 27.7143 34.9348 27.0644 34.9348 25.3124C34.9348 23.6421 33.5378 23.1899 32.4576 22.9231C31.9918 22.81 31.52 22.719 31.3648 22.6876Z" fill="black"/>
</g>
<defs>
<clipPath id="clip0_8228_3678">
<rect width="36" height="7.71429" fill="white" transform="translate(6 20)"/>
</clipPath>
</defs>
</svg>
