<svg width="31" height="31" viewBox="0 0 31 31" fill="none" xmlns="http://www.w3.org/2000/svg">
<path d="M16.2279 2.37388C16.2316 2.69164 16.1723 3.00697 16.0532 3.30161C15.9342 3.59625 15.7579 3.86434 15.5345 4.09035C15.3111 4.31636 15.0451 4.49579 14.7518 4.61826C14.4586 4.74072 14.144 4.80378 13.8262 4.80378C13.5084 4.80378 13.1938 4.74072 12.9006 4.61826C12.6073 4.49579 12.3413 4.31636 12.1179 4.09035C11.8946 3.86434 11.7182 3.59625 11.5992 3.30161C11.4802 3.00697 11.4208 2.69164 11.4245 2.37388C11.4319 1.74176 11.6881 1.13802 12.1377 0.693624C12.5874 0.249226 13.194 0 13.8262 0C14.4584 0 15.0651 0.249226 15.5147 0.693624C15.9643 1.13802 16.2206 1.74176 16.2279 2.37388ZM21.421 5.29475C21.421 5.63574 21.3539 5.97338 21.2234 6.28841C21.0929 6.60344 20.9016 6.88968 20.6605 7.13079C20.4194 7.3719 20.1332 7.56316 19.8181 7.69365C19.5031 7.82414 19.1655 7.8913 18.8245 7.8913C18.4835 7.8913 18.1459 7.82414 17.8308 7.69365C17.5158 7.56316 17.2296 7.3719 16.9884 7.13079C16.7473 6.88968 16.5561 6.60344 16.4256 6.28841C16.2951 5.97338 16.2279 5.63574 16.2279 5.29475C16.2279 4.60611 16.5015 3.94566 16.9884 3.45872C17.4754 2.97177 18.1358 2.6982 18.8245 2.6982C19.5131 2.6982 20.1736 2.97177 20.6605 3.45872C21.1475 3.94566 21.421 4.60611 21.421 5.29475Z" fill="black"/>
<path d="M22.9791 6.85282C22.9791 7.43817 22.7465 7.99955 22.3326 8.41345C21.9187 8.82736 21.3574 9.05989 20.772 9.05989C20.1867 9.05989 19.6253 8.82736 19.2114 8.41345C18.7975 7.99955 18.5649 7.43817 18.5649 6.85282C18.5649 6.26747 18.7975 5.70609 19.2114 5.29219C19.6253 4.87828 20.1867 4.64575 20.772 4.64575C21.3574 4.64575 21.9187 4.87828 22.3326 5.29219C22.7465 5.70609 22.9791 6.26747 22.9791 6.85282ZM30.5087 10.0333C30.5087 10.7048 30.242 11.3487 29.7673 11.8234C29.2925 12.2982 28.6486 12.5649 27.9772 12.5649C27.3058 12.5649 26.6619 12.2982 26.1871 11.8234C25.7124 11.3487 25.4456 10.7048 25.4456 10.0333C25.4456 9.36194 25.7124 8.71803 26.1871 8.24327C26.6619 7.76851 27.3058 7.50179 27.9772 7.50179C28.6486 7.50179 29.2925 7.76851 29.7673 8.24327C30.242 8.71803 30.5087 9.36194 30.5087 10.0333Z" fill="black"/>
<path d="M30.5089 14.1876C30.5124 14.4711 30.4596 14.7525 30.3535 15.0154C30.2474 15.2784 30.0902 15.5177 29.8909 15.7194C29.6917 15.9212 29.4544 16.0813 29.1927 16.1906C28.9311 16.3 28.6504 16.3562 28.3668 16.3562C28.0833 16.3562 27.8026 16.3 27.5409 16.1906C27.2793 16.0813 27.042 15.9212 26.8427 15.7194C26.6435 15.5177 26.4862 15.2784 26.3802 15.0154C26.2741 14.7525 26.2213 14.4711 26.2248 14.1876C26.2317 13.624 26.4605 13.0859 26.8614 12.6899C27.2624 12.2939 27.8033 12.0718 28.3668 12.0718C28.9304 12.0718 29.4713 12.2939 29.8722 12.6899C30.2732 13.0859 30.5019 13.624 30.5089 14.1876ZM23.6282 10.812C23.6282 11.3457 23.4162 11.8576 23.0388 12.2349C22.6615 12.6123 22.1496 12.8243 21.616 12.8243C21.0823 12.8243 20.5705 12.6123 20.1931 12.2349C19.8157 11.8576 19.6037 11.3457 19.6037 10.812C19.6037 10.2784 19.8157 9.76655 20.1931 9.38918C20.5705 9.01181 21.0823 8.7998 21.616 8.7998C22.1496 8.7998 22.6615 9.01181 23.0388 9.38918C23.4162 9.76655 23.6282 10.2784 23.6282 10.812ZM21.8106 18.7314C21.8106 19.265 21.5986 19.7769 21.2212 20.1542C20.8439 20.5316 20.3321 20.7436 19.7984 20.7436C19.2647 20.7436 18.7529 20.5316 18.3755 20.1542C17.9981 19.7769 17.7861 19.265 17.7861 18.7314C17.7861 18.1977 17.9981 17.6859 18.3755 17.3085C18.7529 16.9311 19.2647 16.7191 19.7984 16.7191C20.3321 16.7191 20.8439 16.9311 21.2212 17.3085C21.5986 17.6859 21.8106 18.1977 21.8106 18.7314Z" fill="black"/>
<path d="M25.7053 20.3546C25.7053 20.6956 25.6381 21.0332 25.5077 21.3483C25.3772 21.6633 25.1859 21.9495 24.9448 22.1906C24.7037 22.4318 24.4174 22.623 24.1024 22.7535C23.7874 22.884 23.4497 22.9512 23.1088 22.9512C22.7678 22.9512 22.4301 22.884 22.1151 22.7535C21.8001 22.623 21.5138 22.4318 21.2727 22.1906C21.0316 21.9495 20.8403 21.6633 20.7099 21.3483C20.5794 21.0332 20.5122 20.6956 20.5122 20.3546C20.5122 19.666 20.7858 19.0055 21.2727 18.5186C21.7597 18.0316 22.4201 17.7581 23.1088 17.7581C23.7974 17.7581 24.4578 18.0316 24.9448 18.5186C25.4317 19.0055 25.7053 19.666 25.7053 20.3546Z" fill="black"/>
<path d="M22.4597 23.2103C22.4597 23.8645 22.1998 24.492 21.7372 24.9546C21.2746 25.4172 20.6472 25.6771 19.9929 25.6771C19.3387 25.6771 18.7113 25.4172 18.2487 24.9546C17.7861 24.492 17.5262 23.8645 17.5262 23.2103C17.5262 22.5561 17.7861 21.9287 18.2487 21.4661C18.7113 21.0035 19.3387 20.7436 19.9929 20.7436C20.6472 20.7436 21.2746 21.0035 21.7372 21.4661C22.1998 21.9287 22.4597 22.5561 22.4597 23.2103ZM24.0176 28.6631C24.0176 29.2829 23.7714 29.8773 23.3331 30.3155C22.8949 30.7538 22.3005 31 21.6807 31C21.0609 31 20.4665 30.7538 20.0283 30.3155C19.59 29.8773 19.3438 29.2829 19.3438 28.6631C19.3438 28.0433 19.59 27.4489 20.0283 27.0107C20.4665 26.5724 21.0609 26.3262 21.6807 26.3262C22.3005 26.3262 22.8949 26.5724 23.3331 27.0107C23.7714 27.4489 24.0176 28.0433 24.0176 28.6631ZM12.2035 22.821C12.2035 23.1108 12.1464 23.3978 12.0355 23.6656C11.9246 23.9333 11.762 24.1766 11.5571 24.3815C11.3521 24.5865 11.1089 24.749 10.8411 24.8599C10.5733 24.9708 10.2864 25.0279 9.99655 25.0279C9.70674 25.0279 9.41976 24.9708 9.15201 24.8599C8.88425 24.749 8.64096 24.5865 8.43603 24.3815C8.2311 24.1766 8.06855 23.9333 7.95764 23.6656C7.84673 23.3978 7.78965 23.1108 7.78965 22.821C7.78965 22.2357 8.02216 21.6744 8.43603 21.2605C8.84991 20.8466 9.41124 20.6141 9.99655 20.6141C10.5819 20.6141 11.1432 20.8466 11.5571 21.2605C11.9709 21.6744 12.2035 22.2357 12.2035 22.821ZM5.06311 18.6019C5.06311 19.2733 4.79639 19.9172 4.32163 20.3919C3.84687 20.8667 3.20296 21.1334 2.53155 21.1334C1.86014 21.1334 1.21623 20.8667 0.741475 20.3919C0.266717 19.9172 0 19.2733 0 18.6019C0 17.9305 0.266717 17.2865 0.741475 16.8118C1.21623 16.337 1.86014 16.0703 2.53155 16.0703C3.20296 16.0703 3.84687 16.337 4.32163 16.8118C4.79639 17.2865 5.06311 17.9305 5.06311 18.6019ZM14.1507 17.0439C14.1546 17.3959 14.0886 17.7452 13.9566 18.0715C13.8246 18.3978 13.6292 18.6947 13.3817 18.945C13.1342 19.1952 12.8395 19.3939 12.5147 19.5295C12.1898 19.6651 11.8413 19.735 11.4893 19.735C11.1373 19.735 10.7888 19.6651 10.464 19.5295C10.1392 19.3939 9.84445 19.1952 9.59693 18.945C9.34941 18.6947 9.154 18.3978 9.022 18.0715C8.89 17.7452 8.82404 17.3959 8.82794 17.0439C8.8357 16.3432 9.11952 15.6738 9.61778 15.181C10.116 14.6883 10.7885 14.4119 11.4893 14.4119C12.1901 14.4119 12.8626 14.6883 13.3609 15.181C13.8591 15.6738 14.1429 16.3432 14.1507 17.0439ZM13.3717 8.47565C13.3752 8.75917 13.3224 9.04057 13.2163 9.30353C13.1103 9.56649 12.953 9.80577 12.7538 10.0075C12.5545 10.2092 12.3172 10.3694 12.0556 10.4787C11.7939 10.588 11.5132 10.6443 11.2297 10.6443C10.9461 10.6443 10.6654 10.588 10.4038 10.4787C10.1421 10.3694 9.90481 10.2092 9.70555 10.0075C9.5063 9.80577 9.34907 9.56649 9.24299 9.30353C9.13692 9.04057 9.0841 8.75917 9.0876 8.47565C9.09455 7.91212 9.3233 7.37403 9.72426 6.97799C10.1252 6.58195 10.6661 6.35986 11.2297 6.35986C11.7932 6.35986 12.3341 6.58195 12.7351 6.97799C13.136 7.37403 13.3648 7.91212 13.3717 8.47565Z" fill="black"/>
<path d="M10.5151 5.68458C10.5151 6.00849 10.4513 6.32923 10.3274 6.62849C10.2034 6.92774 10.0218 7.19966 9.79271 7.4287C9.56367 7.65774 9.29176 7.83942 8.9925 7.96338C8.69324 8.08734 8.3725 8.15113 8.04859 8.15113C7.72468 8.15113 7.40394 8.08734 7.10468 7.96338C6.80542 7.83942 6.53351 7.65774 6.30447 7.4287C6.07543 7.19966 5.89374 6.92774 5.76979 6.62849C5.64583 6.32923 5.58203 6.00849 5.58203 5.68458C5.58203 5.0304 5.8419 4.40303 6.30447 3.94046C6.76704 3.47789 7.39442 3.21802 8.04859 3.21802C8.70276 3.21802 9.33014 3.47789 9.79271 3.94046C10.2553 4.40303 10.5151 5.0304 10.5151 5.68458ZM27.782 19.251C27.782 19.888 27.529 20.4989 27.0785 20.9494C26.6281 21.3998 26.0172 21.6529 25.3801 21.6529C24.7431 21.6529 24.1322 21.3998 23.6818 20.9494C23.2313 20.4989 22.9783 19.888 22.9783 19.251C22.9783 18.614 23.2313 18.003 23.6818 17.5526C24.1322 17.1021 24.7431 16.8491 25.3801 16.8491C26.0172 16.8491 26.6281 17.1021 27.0785 17.5526C27.529 18.003 27.782 18.614 27.782 19.251ZM16.3572 17.2387C16.3572 17.7896 16.1384 18.318 15.7488 18.7076C15.3593 19.0971 14.8309 19.316 14.28 19.316C13.7291 19.316 13.2007 19.0971 12.8112 18.7076C12.4216 18.318 12.2027 17.7896 12.2027 17.2387C12.2027 16.6878 12.4216 16.1595 12.8112 15.7699C13.2007 15.3803 13.7291 15.1615 14.28 15.1615C14.8309 15.1615 15.3593 15.3803 15.7488 15.7699C16.1384 16.1595 16.3572 16.6878 16.3572 17.2387Z" fill="black"/>
<path fill-rule="evenodd" clip-rule="evenodd" d="M17.4014 6.0087L9.74173 6.07369L9.73193 4.90541L17.3913 4.84009L17.4014 6.0087Z" fill="black"/>
<path fill-rule="evenodd" clip-rule="evenodd" d="M11.2137 6.95827L12.9663 3.19312L13.9079 3.63143L12.155 7.39626L11.2137 6.95827ZM12.0325 14.9174L17.2903 6.47881L18.2819 7.09676L13.0241 15.5351L12.0325 14.9174Z" fill="black"/>
<path fill-rule="evenodd" clip-rule="evenodd" d="M11.4265 15.2729L10.9072 9.49583L11.9416 9.40308L12.4609 15.1802L11.4265 15.2729Z" fill="black"/>
<path fill-rule="evenodd" clip-rule="evenodd" d="M13.5281 16.3531L11.0616 9.47246L11.9173 9.16577L14.3838 16.0465L13.5281 16.3531ZM10.359 17.6828L3.93233 18.9807L3.72656 17.9627L10.1529 16.6644L10.3587 17.6825L10.359 17.6828ZM10.0961 21.1533L11.0697 18.8164L11.9088 19.1659L10.9348 21.5028L10.0961 21.1533ZM19.1925 23.292L12.8311 18.6182L13.5229 17.6766L19.8843 22.3504L19.1925 23.292Z" fill="black"/>
<path fill-rule="evenodd" clip-rule="evenodd" d="M18.8808 23.5999L10.8965 23.4703L10.9135 22.4316L18.8978 22.5616L18.8808 23.5999Z" fill="black"/>
<path fill-rule="evenodd" clip-rule="evenodd" d="M11.0737 22.7466L20.7456 27.6151L20.2785 28.5427L10.6069 23.6745L11.074 22.747L11.0737 22.7466ZM19.4692 19.2307L15.0554 17.8674L15.3232 16.9993L19.7373 18.3622L19.4692 19.2307ZM21.6317 11.9727C21.629 11.9633 21.6156 11.9133 21.6156 11.8509H22.5246C22.5245 11.8147 22.5199 11.7786 22.5109 11.7435L22.5073 11.7304L22.5057 11.7258L22.5138 11.7464C22.5253 11.7751 22.5439 11.8192 22.57 11.8793C22.6223 11.9989 22.699 12.1687 22.7954 12.3787C22.9881 12.7981 23.2549 13.3693 23.5521 14.0007C24.1465 15.2633 24.8602 16.7618 25.3361 17.7567L24.5163 18.1486C23.9174 16.8967 23.322 15.6432 22.73 14.388C22.474 13.8458 22.2204 13.3024 21.9694 12.7579C21.8724 12.5463 21.793 12.3706 21.7375 12.2432C21.7097 12.1801 21.6865 12.1256 21.6695 12.0831C21.6609 12.0617 21.6529 12.04 21.6454 12.0181C21.6404 12.0035 21.6359 11.9887 21.632 11.9737L21.6317 11.9727Z" fill="black"/>
<path fill-rule="evenodd" clip-rule="evenodd" d="M27.9812 11.461L24.6057 18.2767L23.5586 17.7584L26.9341 10.9424L27.9812 11.461Z" fill="black"/>
<path fill-rule="evenodd" clip-rule="evenodd" d="M27.5713 12.9533L26.273 18.0164L25.2671 17.7584L26.5654 12.6953L27.5713 12.9533Z" fill="black"/>
<path fill-rule="evenodd" clip-rule="evenodd" d="M26.8026 13.8812L22.5835 11.804L22.9849 10.9888L27.204 13.066L26.8026 13.8812Z" fill="black"/>
<path fill-rule="evenodd" clip-rule="evenodd" d="M26.4343 13.2494L21.6309 8.25159L22.3798 7.53174L27.1832 12.5302L26.4343 13.2494Z" fill="black"/>
<path fill-rule="evenodd" clip-rule="evenodd" d="M27.3737 10.3768L21.337 7.65062L21.7642 6.7041L27.8012 9.43032L27.3737 10.3768ZM20.3457 10.9958L12.686 9.24317L12.8885 8.35708L20.5485 10.1097L20.3457 10.9958Z" fill="black"/>
</svg>
