<svg width="91" height="31" viewBox="0 0 91 31" fill="none" xmlns="http://www.w3.org/2000/svg">
<path d="M85.7849 25.4242L80.8957 18.5399L76.007 25.4242H71.3784L78.191 15.5405L71.4987 5.4353H76.3476L80.8763 12.3398L85.3844 5.4353H90.233L83.5406 15.5405L90.3936 25.4242H85.7849Z" fill="black"/>
<path d="M61.2398 14.2921V14.3324C61.2398 15.6408 61.5003 16.8687 61.9812 17.996H67.3512C66.3492 20.2102 64.1251 21.7603 61.5604 21.7603C58.0539 21.7603 55.1886 18.9018 55.1886 15.3589C55.1886 11.8362 58.0339 8.95764 61.5604 8.95764C64.0049 8.95764 66.1289 10.3466 67.1908 12.3596L70.8976 10.8498C69.2346 7.34729 65.668 4.93164 61.5604 4.93164C55.8298 4.93164 51.2012 9.60183 51.2012 15.3388C51.2012 21.096 55.8498 25.746 61.5604 25.746C64.6862 25.746 66.8703 24.4979 68.2328 22.5051L68.4932 25.3836H71.599V14.2921H61.2398Z" fill="black"/>
<path d="M39.4598 14.2922V14.3325C39.4598 15.6409 39.7203 16.8688 40.2012 17.9961H45.5712C44.5693 20.2104 42.3452 21.7604 39.7805 21.7604C37.7968 21.7604 36.0335 20.8545 34.8513 19.4253C34.5508 20.8948 34.0899 22.3241 33.4888 23.6526C35.232 24.9812 37.3961 25.7864 39.7604 25.7864C42.8862 25.7864 45.0702 24.5383 46.4328 22.5455L46.6932 25.424H49.7991V14.2922H39.4598Z" fill="black"/>
<path d="M34.8308 11.3534C35.9929 9.9041 37.7762 8.97815 39.7799 8.97815C42.2245 8.97815 44.3484 10.3671 45.4104 12.3801L49.1173 10.8703C47.4541 7.36772 43.8875 4.95215 39.7799 4.95215C37.3955 4.95215 35.2114 5.75737 33.4683 7.10607C34.0693 8.45477 34.5302 9.86388 34.8308 11.3534Z" fill="black"/>
<path d="M16.5237 7.60703C16.4846 7.60703 16.426 7.58733 16.3869 7.58733C16.3478 7.58733 16.3087 7.58733 16.2891 7.56763C16.2501 7.56763 16.211 7.56763 16.1914 7.56763C16.1719 7.56763 16.1328 7.56763 16.1133 7.56763C16.0742 7.56763 16.0156 7.56763 15.9765 7.56763C15.9569 7.56763 15.9178 7.56763 15.8982 7.56763H15.8787C15.8396 7.56763 15.8005 7.56763 15.7615 7.56763C15.7028 7.56763 15.6247 7.56763 15.566 7.56763C15.566 7.56763 15.566 7.56763 15.5464 7.56763V8.55293V15.6278H10.4063V15.6475C10.4063 16.357 10.5431 17.027 10.8167 17.638H13.5529V21.3232C11.2272 20.4955 9.54626 18.2489 9.54626 15.6081C9.54626 12.5536 11.7744 10.031 14.6865 9.61712V7.60703V7.56763C10.6603 8.00117 7.5332 11.4303 7.5332 15.5884C7.5332 19.7073 10.5822 23.0969 14.5497 23.6093C14.5888 23.6093 14.6474 23.629 14.6865 23.629C14.7256 23.629 14.7646 23.629 14.7842 23.6487C14.8233 23.6487 14.8624 23.6487 14.882 23.6487C14.9015 23.6487 14.9406 23.6487 14.9601 23.6487C14.9992 23.6487 15.0578 23.6487 15.0969 23.6487C15.1165 23.6487 15.1555 23.6487 15.1751 23.6487H15.1947C15.2338 23.6487 15.2729 23.6487 15.3119 23.6487C15.3901 23.6487 15.4487 23.6487 15.5269 23.6487V15.5687H20.6671V15.549C20.6671 14.8396 20.5303 14.1695 20.2567 13.5586H17.5204V9.87333C19.8462 10.701 21.5271 12.9477 21.5271 15.5884C21.5271 18.6431 19.2795 21.1656 16.3869 21.5794V23.5896V23.6093C20.4131 23.1757 23.5402 19.7467 23.5402 15.5884C23.5402 11.4894 20.4717 8.09968 16.5237 7.60703Z" fill="black"/>
<mask id="mask0_8313_146" style="mask-type:luminance" maskUnits="userSpaceOnUse" x="0" y="0" width="31" height="31">
<path d="M30.8571 0H0V31H30.8571V0Z" fill="white"/>
</mask>
<g mask="url(#mask0_8313_146)">
<path d="M15.4278 5.53942C16.4504 5.53942 17.4405 5.70199 18.366 5.99453L20.4693 0.85822C18.8903 0.305579 17.1946 0 15.4214 0C13.6481 0 11.8684 0.318576 10.2505 0.897228L12.5156 5.97507C13.441 5.68894 14.4183 5.53942 15.4214 5.53942H15.4278Z" fill="black"/>
<path d="M24.2175 10.9097L29.3755 8.86818C27.887 5.71486 25.3695 3.15971 22.2631 1.6123L20.1533 6.75513C21.8812 7.70435 23.2985 9.15424 24.2111 10.9097H24.2175Z" fill="black"/>
<path d="M10.7309 6.72917L8.47235 1.6709C5.51476 3.17928 3.09433 5.6109 1.6123 8.59517L6.64731 10.8773C7.57924 9.08279 9.00951 7.65244 10.7245 6.72268L10.7309 6.72917Z" fill="black"/>
<path d="M5.51391 15.5001C5.51391 14.5378 5.64981 13.5951 5.91515 12.6848L0.86074 10.3962C0.304171 11.9956 0 13.7121 0 15.5001C0 17.288 0.310643 19.011 0.86721 20.6104L5.87632 18.3998L5.94104 18.3738C5.66923 17.4636 5.51391 16.5013 5.51391 15.5001Z" fill="black"/>
<path d="M10.7632 24.2774C9.02873 23.3411 7.59852 21.9042 6.67307 20.1553L6.64718 20.1682V20.1813L6.56952 20.2138L1.61865 22.3984C3.12009 25.4217 5.57287 27.8923 8.59519 29.3941L10.6791 24.4919L10.7632 24.2709V24.2774Z" fill="black"/>
<path d="M24.1722 20.1746C23.2467 21.917 21.8164 23.3538 20.082 24.2836L20.095 24.3161L20.2761 24.7452V24.7582L22.2501 29.3939C25.2659 27.892 27.7316 25.4344 29.233 22.4111L24.3016 20.2396L24.1592 20.181L24.1722 20.1746Z" fill="black"/>
<path d="M18.2822 25.0314C17.3762 25.3045 16.4183 25.454 15.4282 25.454C14.438 25.454 13.4672 25.3045 12.5612 25.0249L12.5418 25.0769L12.4641 25.2589L10.3867 30.1417C11.9658 30.6879 13.6613 30.9934 15.4282 30.9934C17.1949 30.9934 18.884 30.6879 20.4696 30.1417L18.4375 25.3694L18.2822 25.0314Z" fill="black"/>
<path d="M30.0943 10.6821L24.9429 12.7237C25.2017 13.6079 25.3441 14.5376 25.3441 15.4999C25.3441 16.4622 25.1953 17.4634 24.917 18.3736L24.9817 18.3997L25.1564 18.4777L29.9973 20.6102C30.5538 19.0108 30.8581 17.2944 30.8581 15.4999C30.8581 13.8159 30.5862 12.197 30.0943 10.6821Z" fill="black"/>
</g>
</svg>
