<svg width="30" height="30" viewBox="0 0 30 30" fill="none" xmlns="http://www.w3.org/2000/svg">
<path fill-rule="evenodd" clip-rule="evenodd" d="M10.2551 1.53061C8.07643 1.53061 5.93265 2.82122 4.26735 5.25735C2.60694 7.68582 1.53061 11.1257 1.53061 15C1.53061 18.8743 2.60694 22.3142 4.26735 24.7427C5.93265 27.1788 8.07643 28.4694 10.2551 28.4694C12.4338 28.4694 14.5776 27.1788 16.2429 24.7427C17.5898 22.7724 18.5526 20.1367 18.8679 17.1429H20.4064C19.9984 21.3153 18.4166 24.9337 16.1654 27.2596C17.2941 28.0573 18.5143 28.4694 19.7449 28.4694C21.9236 28.4694 24.0673 27.1788 25.7327 24.7427C27.3934 22.3142 28.4694 18.8743 28.4694 15C28.4694 11.1257 27.3931 7.68582 25.7327 5.25735C24.0673 2.82122 21.9239 1.53061 19.7449 1.53061C17.7542 1.53061 15.8014 2.60327 14.2041 4.64541C12.63 6.65847 11.4827 9.52959 11.1321 12.8571H9.59357C10.0016 8.68469 11.5834 5.06633 13.8346 2.74041C12.7059 1.94265 11.4857 1.53061 10.2551 1.53061ZM10.2551 30C11.9672 30 13.5811 29.3865 15 28.301C16.4189 29.3868 18.0328 30 19.7449 30C25.4085 30 30 23.2843 30 15C30 6.71571 25.4085 0 19.7449 0C18.0328 0 16.4189 0.613776 15 1.69898C13.5811 0.613469 11.9672 0 10.2551 0C4.59122 0 0 6.71571 0 15C0 23.2843 4.59122 30 10.2551 30ZM18.9655 14.2347C18.8342 10.6736 17.7931 7.52449 16.2429 5.25735C16.159 5.13459 16.0742 5.0149 15.9879 4.89796L17.1429 3.88684C19.0907 6.47112 20.3562 10.1357 20.497 14.2347H25.091L22.2649 11.4086L23.3473 10.3261L28.0209 15L23.3473 19.6739L22.2649 18.5914L25.091 15.7653H11.0345C11.1658 19.3264 12.2069 22.4755 13.7571 24.7427C13.8634 24.8982 13.9714 25.0491 14.0816 25.1951L12.8571 26.1135C10.9093 23.5286 9.64377 19.8637 9.50296 15.7653H5.06173L7.88816 18.5914L6.80571 19.6739L2.13184 15L6.80571 10.3261L7.88816 11.4086L5.06173 14.2347H18.9655Z" fill="black"/>
</svg>
