<svg width="30" height="30" viewBox="0 0 30 30" fill="none" xmlns="http://www.w3.org/2000/svg">
<path d="M7.81943 22C6.57257 22 5.42657 21.7014 4.38143 21.1044C3.34857 20.5072 2.52371 19.6762 1.90686 18.6118C1.30229 17.5342 1 16.3274 1 14.9902C1 13.6533 1.30229 12.4523 1.90686 11.3879C2.524 10.3235 3.34857 9.49282 4.38114 8.89557C5.42686 8.29833 6.57257 8 7.81943 8C9.06629 8 10.206 8.29833 11.2386 8.89557C12.284 9.49282 13.1023 10.3235 13.6943 11.3879C14.2989 12.4523 14.6011 13.6533 14.6011 14.9902C14.6011 16.3271 14.2989 17.5345 13.6943 18.6118C13.09 19.6762 12.2714 20.5072 11.2386 21.1041C10.206 21.7014 9.06629 22 7.81943 22ZM7.81943 18.9624C8.87743 18.9624 9.72114 18.5989 10.3509 17.8719C10.9931 17.1448 11.3143 16.1844 11.3143 14.9902C11.3143 13.783 10.9931 12.8223 10.3509 12.1085C9.72114 11.3814 8.87743 11.0179 7.81943 11.0179C6.74886 11.0179 5.89257 11.375 5.25029 12.0888C4.62057 12.8029 4.30571 13.7698 4.30571 14.9902C4.30571 16.1973 4.62057 17.1645 5.25029 17.8912C5.89257 18.6053 6.74886 18.9624 7.81943 18.9624ZM29 21.8635H25.7697L20.3669 13.4325V21.8635H17.1371V8.19468H20.3674L25.7703 16.6647V8.19468H29V21.8635Z" fill="black"/>
</svg>
