<svg width="30" height="30" viewBox="0 0 30 30" fill="none" xmlns="http://www.w3.org/2000/svg">
<g clip-path="url(#clip0_8228_3515)">
<path d="M10.0188 1H19.9811C24.962 1 28.9999 5.03797 28.9999 10.0188V19.9811C28.9999 24.962 24.962 28.9999 19.9811 28.9999H10.0188C5.03765 28.9999 1 24.962 1 19.9811V10.0188C1 5.03765 5.03797 1 10.0188 1Z" stroke="black" stroke-width="1.49438"/>
<path fill-rule="evenodd" clip-rule="evenodd" d="M20.499 15.0006C19.6917 17.2563 17.5351 18.8706 15.0013 18.8706C12.4677 18.8706 10.3111 17.2567 9.50352 15.0006C10.3111 12.7443 12.4677 11.1303 15.0013 11.1303C17.5351 11.1303 19.6917 12.7443 20.499 15.0006ZM20.7328 11.9175C19.3331 10.3303 17.284 9.32921 15.0013 9.32921C12.7188 9.32921 10.6698 10.3303 9.27008 11.9178C9.79044 9.22696 12.1588 7.1946 15.0013 7.1946C17.844 7.1946 20.2124 9.22664 20.7328 11.9175ZM22.3844 15.0006C22.5515 14.3727 22.6405 13.7132 22.6405 13.0328C22.6405 8.81388 19.2204 5.3938 15.0013 5.3938C10.7824 5.3938 7.36262 8.81388 7.36262 13.0328C7.36262 13.7132 7.45134 14.373 7.61808 15.0006C7.44777 15.6426 7.36179 16.304 7.36231 16.9682C7.36231 21.187 10.7824 24.6074 15.0013 24.6074C19.2201 24.6074 22.6405 21.1873 22.6405 16.9682C22.6405 16.288 22.5512 15.6283 22.3844 15.0006ZM20.7328 18.0834C19.3331 19.6706 17.284 20.672 15.0013 20.672C12.7188 20.672 10.6698 19.6706 9.27008 18.0834C9.79044 20.7739 12.1588 22.806 15.0013 22.806C17.844 22.806 20.2124 20.7739 20.7328 18.0834ZM17.7792 15.0003C17.7792 15.7371 17.4866 16.4436 16.9656 16.9646C16.4446 17.4856 15.738 17.7783 15.0013 17.7783C14.2645 17.7783 13.5579 17.4856 13.0369 16.9646C12.516 16.4436 12.2233 15.7371 12.2233 15.0003C12.2233 14.2635 12.516 13.5569 13.0369 13.036C13.5579 12.515 14.2645 12.2223 15.0013 12.2223C15.738 12.2223 16.4446 12.515 16.9656 13.036C17.4866 13.5569 17.7792 14.2635 17.7792 15.0003Z" fill="black"/>
</g>
<defs>
<clipPath id="clip0_8228_3515">
<rect width="30" height="30" fill="white"/>
</clipPath>
</defs>
</svg>
