<svg width="57" height="30" viewBox="0 0 57 30" fill="none" xmlns="http://www.w3.org/2000/svg">
<g clip-path="url(#clip0_8228_3528)">
<path fill-rule="evenodd" clip-rule="evenodd" d="M31.9329 6.31561L28.4073 0.310791L24.8818 6.31561L25.414 6.62412L28.0992 2.05067V5.87752H28.7154V2.05064L31.4005 6.62412L31.9329 6.31561ZM20.803 14.4778L23.3462 10.1461L22.814 9.83755L19.4595 15.551H25.9732V14.9387H21.2332L24.6472 13.0004L24.3415 12.4689L20.803 14.4778ZM33.4682 10.1461L35.9809 14.4253L32.5347 12.4689L32.229 13.0004L35.6432 14.9387H30.8413V15.551H37.355L34.0007 9.83755L33.4682 10.1461ZM28.1865 15L28.4381 15.4285L28.6897 15H28.7462V14.9038L32.7516 8.0816H32.1471L32.1354 8.06149L32.1002 8.0816H24.776L24.741 8.06149L24.7292 8.0816H24.1246L28.13 14.9038V15H28.1865ZM25.8419 8.69385L28.4381 10.1851L31.0343 8.69385H25.8419ZM28.13 13.6887L25.496 9.20238L28.13 10.7153V13.6887ZM2.77297 22.8282C1.06066 23.1033 0.308105 24.4263 0.308105 26.0932C0.308105 27.7854 1.06066 29.0888 2.77297 29.3593V28.6919C1.64103 28.4574 1.13815 27.5893 1.13815 26.0932C1.13815 24.5972 1.64103 23.7291 2.77297 23.4946V22.8282ZM3.26594 28.7522V29.407C3.33148 29.4097 3.39821 29.411 3.46612 29.411C3.56626 29.411 3.66387 29.4081 3.75892 29.4023V28.7466C3.66482 28.7535 3.56721 28.7569 3.46612 28.7569C3.39778 28.7569 3.33105 28.7553 3.26594 28.7522ZM3.26594 23.4343V22.7796C3.33148 22.7769 3.39821 22.7755 3.46612 22.7755C3.56626 22.7755 3.66387 22.7785 3.75892 22.7844V23.4399C3.66482 23.433 3.56721 23.4296 3.46612 23.4296C3.39778 23.4296 3.33105 23.4311 3.26594 23.4343ZM5.80361 26.0932C5.80361 27.5482 5.32155 28.4092 4.25189 28.6711V29.3431C5.90088 29.0393 6.63366 27.7465 6.63366 26.0932C6.63366 24.4648 5.90088 23.1535 4.25189 22.8446V23.5153C5.32155 23.7772 5.80361 24.6383 5.80361 26.0932ZM12.5086 24.7851C12.5086 23.7708 11.9552 22.9461 10.5909 22.9461H7.68092V29.2498H8.48234V26.6336H10.5527C11.9552 26.6336 12.5086 25.7899 12.5086 24.7851ZM11.6785 24.7851C11.6785 25.5055 11.335 25.9985 10.3905 25.9985H8.48234V23.5812H10.4191C11.335 23.5812 11.6785 24.0362 11.6785 24.7851ZM14.2588 28.6147H18.1896V29.2498H13.4669V22.9461H18.161V23.5812H14.2588V25.6951H17.8747V26.3207H14.2588V28.6147ZM24.7182 22.9461H23.9358V28.719C23.8118 28.4346 23.6592 28.1218 23.5351 27.9038L20.6538 22.9461H19.3181V29.2498H20.11V23.477C20.2149 23.7234 20.3485 23.9983 20.5107 24.3017L23.392 29.2498H24.7182V22.9461ZM30.8027 22.9461C32.8825 22.9461 33.7603 24.368 33.7603 26.0838C33.7603 27.8185 32.8825 29.2498 30.8027 29.2498H28.1694V22.9461H30.8027ZM30.6596 28.6147C32.3483 28.6147 32.9303 27.6858 32.9303 26.0838C32.9303 24.4818 32.3578 23.5812 30.6596 23.5812H28.9613V28.6147H30.6596ZM39.4794 28.6147H35.5486V26.3207H39.1645V25.6951H35.5486V23.5812H39.4508V22.9461H34.7567V29.2498H39.4794V28.6147ZM41.3999 28.6147H44.72V29.2498H40.6077V22.9461H41.3999V28.6147ZM49.2785 22.9461V23.5812H47.0077V29.2593H46.2255V23.5812H43.9356V22.9461H49.2785ZM48.7347 29.2498L51.7005 23.0204L54.7169 29.2498H48.7347ZM53.5406 28.5152H49.9027L51.7061 24.7267L53.5406 28.5152ZM56.5064 23.902C56.5064 23.4161 56.1083 23.0204 55.6114 23.0204C55.1144 23.0204 54.72 23.4161 54.72 23.902C54.72 24.3996 55.1184 24.7954 55.6114 24.7954C56.1043 24.7954 56.5064 24.3996 56.5064 23.902ZM56.3092 23.902C56.3092 24.286 56.0017 24.6034 55.6154 24.6034C55.221 24.6034 54.9172 24.286 54.9172 23.902C54.9172 23.5219 55.221 23.2085 55.6154 23.2085C56.0017 23.2085 56.3092 23.518 56.3092 23.902ZM55.8323 23.9216C55.9466 23.8981 56.0097 23.8119 56.0097 23.7022C56.0097 23.5415 55.8951 23.4514 55.71 23.4514H55.2721V24.3644H55.4496V23.9804H55.6585C55.7651 23.9804 55.8045 24.0274 55.8045 24.1254V24.2037C55.8045 24.2821 55.8162 24.3252 55.8283 24.3644H55.9977C55.986 24.3213 55.978 24.2625 55.978 24.1998V24.1175C55.978 24.0078 55.9426 23.9412 55.8323 23.9216ZM55.8162 23.7178C55.8162 23.8001 55.7731 23.8432 55.6745 23.8432H55.4496V23.5964H55.6862C55.7768 23.5964 55.8162 23.6395 55.8162 23.7178Z" fill="black"/>
</g>
<defs>
<clipPath id="clip0_8228_3528">
<rect width="57" height="30" fill="white"/>
</clipPath>
</defs>
</svg>
