<svg width="64" height="30" viewBox="0 0 64 30" fill="none" xmlns="http://www.w3.org/2000/svg">
<g clip-path="url(#clip0_8228_3539)">
<path d="M0 19.1486V17.4343H2.16258V18.4457L2.69515 19.0114H6.03582L6.58458 18.4286V16.44L6.05196 15.8743H1.77525L0.0322772 14.0229V10.8514L1.77525 9H6.87507L8.61802 10.8514V12.5829H6.45545V11.5543L5.92289 10.9886H2.72743L2.19485 11.5543V13.32L2.72743 13.8857H7.00415L8.74716 15.7372V19.1143L6.97187 21H1.74297L0 19.1486Z" fill="black"/>
<path d="M28.4089 17.0228V21H26.2141V17.5543L25.2458 16.4057H21.7275V21H19.5327V9H26.6176L28.3444 10.8514V14.4857L27.247 15.6686L28.4089 17.0228ZM21.7275 14.4857H25.617L26.1818 13.8857V11.5543L25.617 10.9543H21.7275V14.4857Z" fill="black"/>
<path d="M30.2617 19.0286V10.9714L32.1177 9H37.9276L39.7835 10.9714V19.0286L37.9276 21H32.1177L30.2617 19.0286ZM36.7656 19.0114L37.5886 18.1372V11.8629L36.7656 10.9886H33.2796L32.4566 11.8629V18.1372L33.2796 19.0114H36.7656Z" fill="black"/>
<path d="M41.562 19.0286V10.9714L43.418 9H49.2279L51.0838 10.9714V19.0286L49.2279 21H43.418L41.562 19.0286ZM48.0659 19.0114L48.8889 18.1372V11.8629L48.0659 10.9886H44.5799L43.7569 11.8629V18.1372L44.5799 19.0114H48.0659Z" fill="black"/>
<path d="M53.0234 9H55.0569L58.4138 16.7486H58.4461L61.8188 9H63.8526V21H61.7384V13.6971H61.7061L59.1076 19.32H57.7522L55.1699 13.6971H55.1376V21H53.0234V9Z" fill="black"/>
<path d="M16.3155 14.1116H13.3498L12.4961 20.9959L16.3155 14.1116Z" fill="black"/>
<path d="M11.6813 10.9714H9.30127V9H18.2421V10.9714H16.3771L14.068 15.8743H11.6813V10.9714Z" fill="black"/>
</g>
<defs>
<clipPath id="clip0_8228_3539">
<rect width="64" height="12" fill="white" transform="translate(0 9)"/>
</clipPath>
</defs>
</svg>
