<svg width="54" height="30" viewBox="0 0 54 30" fill="none" xmlns="http://www.w3.org/2000/svg">
<g clip-path="url(#clip0_8228_3553)">
<path d="M8.21643 20.5593C8.05826 21.3045 7.97916 21.6771 7.72479 21.9115C7.69082 21.9428 7.65492 21.9719 7.61725 21.9986C7.33512 22.1988 6.95419 22.1988 6.19236 22.1988C5.07396 22.1988 4.51475 22.1988 4.19427 21.8644C4.15251 21.8208 4.11444 21.7739 4.08049 21.724C3.81997 21.3411 3.93605 20.794 4.16828 19.7L4.49315 18.1695C4.54916 17.9056 4.57716 17.7736 4.57241 17.6402C4.56763 17.5068 4.5303 17.3771 4.45565 17.1179L2.5355 10.4515C2.20267 9.29596 2.03625 8.71819 2.29707 8.30603C2.32842 8.25648 2.36373 8.20956 2.40266 8.16573C2.72653 7.80103 3.32778 7.80103 4.5303 7.80103C5.29338 7.80103 5.67491 7.80103 5.9575 8.00221C5.99247 8.02713 6.02596 8.05407 6.05774 8.08294C6.31455 8.31617 6.39585 8.68894 6.5585 9.43446L7.44936 13.5182H7.64892L10.7732 8.64023C10.985 8.30963 11.0908 8.14435 11.2377 8.03003C11.3298 7.95828 11.4329 7.90189 11.543 7.863C11.7184 7.80103 11.9147 7.80103 12.3073 7.80103C13.5411 7.80103 14.158 7.80103 14.4694 8.08682C14.659 8.26093 14.7806 8.49679 14.8125 8.7523C14.8647 9.17168 14.5069 9.67423 13.7913 10.6793L9.09777 17.2717C8.96747 17.4547 8.90232 17.5462 8.85746 17.6483C8.8126 17.7504 8.7893 17.8603 8.74265 18.0801L8.21643 20.5593Z" fill="black" fill-opacity="0.01"/>
<path d="M21.0145 10.9641C20.5289 10.9641 20.0699 11.0972 19.6376 11.3632C19.2119 11.6226 18.8327 11.9885 18.5001 12.4608C18.1675 12.9264 17.9048 13.4685 17.7119 14.0871C17.5256 14.6991 17.4325 15.3609 17.4325 16.0727C17.4325 16.678 17.5323 17.2068 17.7318 17.6591C17.9314 18.1048 18.2108 18.4507 18.57 18.6968C18.9292 18.9429 19.3515 19.066 19.8371 19.066C20.3227 19.066 20.7817 18.9363 21.214 18.6769C21.6464 18.4108 22.0289 18.0449 22.3615 17.5793C22.6941 17.107 22.9535 16.5616 23.1397 15.943C23.3326 15.3244 23.4291 14.6592 23.4291 13.9474C23.4291 13.3355 23.3293 12.8067 23.1298 12.361C22.9302 11.9153 22.6475 11.5728 22.2816 11.3333C21.9224 11.0872 21.5001 10.9641 21.0145 10.9641ZM19.7473 22.5981C18.3571 22.5981 17.1698 22.3254 16.1853 21.7799C15.2008 21.2278 14.4459 20.4795 13.9204 19.535C13.4015 18.5904 13.1421 17.5261 13.1421 16.3421C13.1421 15.0051 13.345 13.7911 13.7507 12.7002C14.1565 11.6027 14.7219 10.6615 15.4469 9.87655C16.172 9.085 17.0168 8.47637 17.9813 8.05064C18.9524 7.61828 19.9968 7.4021 21.1143 7.4021C22.5444 7.4021 23.7484 7.67815 24.7262 8.23025C25.7106 8.78236 26.4556 9.53068 26.9612 10.4752C27.4668 11.4131 27.7194 12.4741 27.7194 13.6581C27.7194 14.9951 27.5165 16.2124 27.1108 17.3099C26.7051 18.4075 26.1363 19.352 25.4046 20.1436C24.6796 20.9285 23.8348 21.5338 22.8703 21.9595C21.9058 22.3852 20.8648 22.5981 19.7473 22.5981Z" fill="black" fill-opacity="0.01"/>
<path d="M29.3367 9.52295C29.5112 8.69805 29.5983 8.28559 29.897 8.0433C30.1961 7.80103 30.6175 7.80103 31.4606 7.80103H35.1587C36.2959 7.80103 37.2571 7.98726 38.0421 8.35978C38.8336 8.73227 39.4355 9.25444 39.848 9.92627C40.2604 10.5981 40.4667 11.383 40.4667 12.281C40.4667 13.5049 40.194 14.5659 39.6485 15.4639C39.1096 16.3552 38.3381 17.047 37.3336 17.5392C36.3293 18.0248 35.1386 18.2676 33.7617 18.2676H33.473C32.6312 18.2676 32.2104 18.2676 31.9119 18.5093C31.6131 18.751 31.5255 19.1626 31.3499 19.9858L31.2267 20.5635C31.0685 21.3056 30.9895 21.6766 30.7364 21.9105C30.7016 21.9428 30.6644 21.9727 30.6256 22.0001C30.3442 22.1988 29.9649 22.1988 29.2062 22.1988C28.092 22.1988 27.5352 22.1988 27.215 21.8667C27.1718 21.822 27.1326 21.7736 27.0978 21.7221C26.839 21.3402 26.9542 20.7953 27.1846 19.7054L29.3367 9.52295ZM33.4722 10.9939C33.3672 10.9939 33.3145 10.9939 33.2771 11.024C33.2399 11.0542 33.2288 11.1056 33.2068 11.2083L32.435 14.8064C32.4028 14.958 32.3865 15.0338 32.4272 15.0842C32.4679 15.1346 32.5455 15.1346 32.7004 15.1346H33.7916C34.2838 15.1346 34.7128 15.0282 35.0786 14.8153C35.4447 14.5958 35.7271 14.2998 35.9269 13.9273C36.1263 13.5482 36.2262 13.1258 36.2262 12.6601C36.2262 12.0881 36.0666 11.669 35.7472 11.403C35.4278 11.1302 34.9657 10.9939 34.3603 10.9939H33.4722Z" fill="black" fill-opacity="0.01"/>
<path d="M47.544 18.8463C48.2086 18.8463 48.5407 18.8463 48.7779 18.9711C49.0411 19.1095 49.2359 19.3499 49.3171 19.636C49.39 19.8939 49.3214 20.219 49.1841 20.8691C49.0899 21.3144 49.043 21.537 48.9315 21.7074C48.8074 21.8969 48.6275 22.0429 48.4164 22.125C48.2265 22.1988 47.9991 22.1988 47.544 22.1988H41.4271C40.1881 22.1988 39.5686 22.1988 39.2429 21.7964C38.917 21.3939 39.0459 20.788 39.3037 19.5762L41.4431 9.52013C41.6184 8.69651 41.706 8.28467 42.0048 8.04286C42.3033 7.80103 42.7244 7.80103 43.5665 7.80103H49.8828C50.549 7.80103 50.882 7.80103 51.1197 7.92618C51.3832 8.06503 51.578 8.30611 51.6586 8.5929C51.731 8.85137 51.6613 9.17708 51.5218 9.8285C51.4266 10.2723 51.3791 10.4942 51.2676 10.664C51.1436 10.8529 50.9636 10.9983 50.7528 11.0801C50.5634 11.1535 50.3365 11.1535 49.8828 11.1535H46.2027C45.7805 11.1535 45.5693 11.1535 45.4198 11.275C45.2703 11.3965 45.2269 11.6031 45.1403 12.0165L45.1061 12.1804C44.9794 12.785 44.9162 13.0872 45.079 13.2878C45.2418 13.4883 45.5509 13.4883 46.1685 13.4883H48.5046C48.9893 13.4883 49.2318 13.4883 49.4137 13.5555C49.7873 13.6935 50.0551 14.0248 50.1121 14.4188C50.1398 14.6109 50.0891 14.8479 49.9876 15.322C49.9184 15.6455 49.8839 15.8073 49.8158 15.9381C49.6766 16.2048 49.4329 16.4018 49.1431 16.4821C49.0009 16.5215 48.8354 16.5215 48.5046 16.5215H45.0608C44.6405 16.5215 44.4305 16.5215 44.2812 16.6421C44.132 16.7627 44.0877 16.9682 43.9995 17.3792L43.9664 17.5331C43.8365 18.1398 43.7713 18.4431 43.9342 18.6447C44.097 18.8463 44.4074 18.8463 45.0277 18.8463H47.544Z" fill="black" fill-opacity="0.01"/>
<mask id="mask0_8228_3553" style="mask-type:luminance" maskUnits="userSpaceOnUse" x="-1" y="5" width="55" height="20">
<path d="M53.8726 5.2312H-0.127441V24.7689H53.8726V5.2312Z" fill="white"/>
<path d="M8.21643 20.5593C8.05826 21.3045 7.97916 21.6771 7.72479 21.9115C7.69082 21.9428 7.65492 21.9719 7.61725 21.9986C7.33512 22.1988 6.95419 22.1988 6.19236 22.1988C5.07396 22.1988 4.51475 22.1988 4.19427 21.8644C4.15251 21.8208 4.11444 21.7739 4.08049 21.724C3.81997 21.3411 3.93605 20.794 4.16828 19.7L4.49315 18.1695C4.54916 17.9056 4.57716 17.7736 4.57241 17.6402C4.56763 17.5068 4.5303 17.3771 4.45565 17.1179L2.5355 10.4515C2.20267 9.29596 2.03625 8.71819 2.29707 8.30603C2.32842 8.25648 2.36373 8.20956 2.40266 8.16573C2.72653 7.80103 3.32778 7.80103 4.5303 7.80103C5.29338 7.80103 5.67491 7.80103 5.9575 8.00221C5.99247 8.02713 6.02596 8.05407 6.05774 8.08294C6.31455 8.31617 6.39585 8.68894 6.5585 9.43446L7.44936 13.5182H7.64892L10.7732 8.64023C10.985 8.30963 11.0908 8.14435 11.2377 8.03003C11.3298 7.95828 11.4329 7.90189 11.543 7.863C11.7184 7.80103 11.9147 7.80103 12.3073 7.80103C13.5411 7.80103 14.158 7.80103 14.4694 8.08682C14.659 8.26093 14.7806 8.49679 14.8125 8.7523C14.8647 9.17168 14.5069 9.67423 13.7913 10.6793L9.09777 17.2717C8.96747 17.4547 8.90232 17.5462 8.85746 17.6483C8.8126 17.7504 8.7893 17.8603 8.74265 18.0801L8.21643 20.5593Z" fill="black"/>
<path d="M21.0145 10.9641C20.5289 10.9641 20.0699 11.0972 19.6376 11.3632C19.2119 11.6226 18.8327 11.9885 18.5001 12.4608C18.1675 12.9264 17.9048 13.4685 17.7119 14.0871C17.5256 14.6991 17.4325 15.3609 17.4325 16.0727C17.4325 16.678 17.5323 17.2068 17.7318 17.6591C17.9314 18.1048 18.2108 18.4507 18.57 18.6968C18.9292 18.9429 19.3515 19.066 19.8371 19.066C20.3227 19.066 20.7817 18.9363 21.214 18.6769C21.6464 18.4108 22.0289 18.0449 22.3615 17.5793C22.6941 17.107 22.9535 16.5616 23.1397 15.943C23.3326 15.3244 23.4291 14.6592 23.4291 13.9474C23.4291 13.3355 23.3293 12.8067 23.1298 12.361C22.9302 11.9153 22.6475 11.5728 22.2816 11.3333C21.9224 11.0872 21.5001 10.9641 21.0145 10.9641ZM19.7473 22.5981C18.3571 22.5981 17.1698 22.3254 16.1853 21.7799C15.2008 21.2278 14.4459 20.4795 13.9204 19.535C13.4015 18.5904 13.1421 17.5261 13.1421 16.3421C13.1421 15.0051 13.345 13.7911 13.7507 12.7002C14.1565 11.6027 14.7219 10.6615 15.4469 9.87655C16.172 9.085 17.0168 8.47637 17.9813 8.05064C18.9524 7.61828 19.9968 7.4021 21.1143 7.4021C22.5444 7.4021 23.7484 7.67815 24.7262 8.23025C25.7106 8.78236 26.4556 9.53068 26.9612 10.4752C27.4668 11.4131 27.7194 12.4741 27.7194 13.6581C27.7194 14.9951 27.5165 16.2124 27.1108 17.3099C26.7051 18.4075 26.1363 19.352 25.4046 20.1436C24.6796 20.9285 23.8348 21.5338 22.8703 21.9595C21.9058 22.3852 20.8648 22.5981 19.7473 22.5981Z" fill="black"/>
<path d="M29.3367 9.52295C29.5112 8.69805 29.5983 8.28559 29.897 8.0433C30.1961 7.80103 30.6175 7.80103 31.4606 7.80103H35.1587C36.2959 7.80103 37.2571 7.98726 38.0421 8.35978C38.8336 8.73227 39.4355 9.25444 39.848 9.92627C40.2604 10.5981 40.4667 11.383 40.4667 12.281C40.4667 13.5049 40.194 14.5659 39.6485 15.4639C39.1096 16.3552 38.3381 17.047 37.3336 17.5392C36.3293 18.0248 35.1386 18.2676 33.7617 18.2676H33.473C32.6312 18.2676 32.2104 18.2676 31.9119 18.5093C31.6131 18.751 31.5255 19.1626 31.3499 19.9858L31.2267 20.5635C31.0685 21.3056 30.9895 21.6766 30.7364 21.9105C30.7016 21.9428 30.6644 21.9727 30.6256 22.0001C30.3442 22.1988 29.9649 22.1988 29.2062 22.1988C28.092 22.1988 27.5352 22.1988 27.215 21.8667C27.1718 21.822 27.1326 21.7736 27.0978 21.7221C26.839 21.3402 26.9542 20.7953 27.1846 19.7054L29.3367 9.52295ZM33.4722 10.9939C33.3672 10.9939 33.3145 10.9939 33.2771 11.024C33.2399 11.0542 33.2288 11.1056 33.2068 11.2083L32.435 14.8064C32.4028 14.958 32.3865 15.0338 32.4272 15.0842C32.4679 15.1346 32.5455 15.1346 32.7004 15.1346H33.7916C34.2838 15.1346 34.7128 15.0282 35.0786 14.8153C35.4447 14.5958 35.7271 14.2998 35.9269 13.9273C36.1263 13.5482 36.2262 13.1258 36.2262 12.6601C36.2262 12.0881 36.0666 11.669 35.7472 11.403C35.4278 11.1302 34.9657 10.9939 34.3603 10.9939H33.4722Z" fill="black"/>
<path d="M47.544 18.8463C48.2086 18.8463 48.5407 18.8463 48.7779 18.9711C49.0411 19.1095 49.2359 19.3499 49.3171 19.636C49.39 19.8939 49.3214 20.219 49.1841 20.8691C49.0899 21.3144 49.043 21.537 48.9315 21.7074C48.8074 21.8969 48.6275 22.0429 48.4164 22.125C48.2265 22.1988 47.9991 22.1988 47.544 22.1988H41.4271C40.1881 22.1988 39.5686 22.1988 39.2429 21.7964C38.917 21.3939 39.0459 20.788 39.3037 19.5762L41.4431 9.52013C41.6184 8.69651 41.706 8.28467 42.0048 8.04286C42.3033 7.80103 42.7244 7.80103 43.5665 7.80103H49.8828C50.549 7.80103 50.882 7.80103 51.1197 7.92618C51.3832 8.06503 51.578 8.30611 51.6586 8.5929C51.731 8.85137 51.6613 9.17708 51.5218 9.8285C51.4266 10.2723 51.3791 10.4942 51.2676 10.664C51.1436 10.8529 50.9636 10.9983 50.7528 11.0801C50.5634 11.1535 50.3365 11.1535 49.8828 11.1535H46.2027C45.7805 11.1535 45.5693 11.1535 45.4198 11.275C45.2703 11.3965 45.2269 11.6031 45.1403 12.0165L45.1061 12.1804C44.9794 12.785 44.9162 13.0872 45.079 13.2878C45.2418 13.4883 45.5509 13.4883 46.1685 13.4883H48.5046C48.9893 13.4883 49.2318 13.4883 49.4137 13.5555C49.7873 13.6935 50.0551 14.0248 50.1121 14.4188C50.1398 14.6109 50.0891 14.8479 49.9876 15.322C49.9184 15.6455 49.8839 15.8073 49.8158 15.9381C49.6766 16.2048 49.4329 16.4018 49.1431 16.4821C49.0009 16.5215 48.8354 16.5215 48.5046 16.5215H45.0608C44.6405 16.5215 44.4305 16.5215 44.2812 16.6421C44.132 16.7627 44.0877 16.9682 43.9995 17.3792L43.9664 17.5331C43.8365 18.1398 43.7713 18.4431 43.9342 18.6447C44.097 18.8463 44.4074 18.8463 45.0277 18.8463H47.544Z" fill="black"/>
</mask>
<g mask="url(#mask0_8228_3553)">
<path d="M7.44963 13.5184L5.32865 13.981L5.70131 15.6892H7.44963V13.5184ZM7.64919 13.5184V15.6892H8.83673L9.47724 14.6892L7.64919 13.5184ZM19.6378 11.3632L20.7675 13.217L20.7715 13.2145L20.7756 13.212L19.6378 11.3632ZM18.5004 12.4607L20.2669 13.7225L20.2711 13.7166L20.2753 13.7107L18.5004 12.4607ZM17.7121 14.0871L15.6397 13.4409L15.6375 13.4479L15.6353 13.455L17.7121 14.0871ZM17.7321 17.6591L15.7459 18.5353L15.7483 18.5408L15.7508 18.5462L17.7321 17.6591ZM21.2143 18.6768L22.3312 20.5383L22.3416 20.532L22.352 20.5256L21.2143 18.6768ZM22.3617 17.5793L24.1282 18.841L24.1324 18.8351L24.1366 18.8292L22.3617 17.5793ZM23.14 15.9429L21.0675 15.2967L21.0644 15.3069L21.0613 15.3171L23.14 15.9429ZM22.2819 11.3333L21.0549 13.1241L21.0738 13.137L21.093 13.1496L22.2819 11.3333ZM16.1856 21.7799L15.1237 23.6733L15.1286 23.676L15.1335 23.6787L16.1856 21.7799ZM13.9206 19.5349L12.0179 20.58L12.0207 20.5852L12.0236 20.5903L13.9206 19.5349ZM13.751 12.7002L15.7857 13.457L15.7864 13.455L15.7871 13.453L13.751 12.7002ZM15.4472 9.8765L17.0418 11.3495L17.0449 11.3462L17.048 11.3428L15.4472 9.8765ZM17.9815 8.0506L18.8581 10.0366L18.8613 10.0352L18.8644 10.0338L17.9815 8.0506ZM24.7264 8.23021L23.6591 10.1205L23.6618 10.1221L23.6646 10.1236L24.7264 8.23021ZM26.9614 10.4752L25.0474 11.4995L25.049 11.5024L25.0505 11.5052L26.9614 10.4752ZM25.4049 20.1435L23.8108 18.67L23.8103 18.6705L25.4049 20.1435ZM38.0421 8.35992L37.1113 10.3211L37.1146 10.3226L37.1179 10.3241L38.0421 8.35992ZM39.6485 15.464L37.793 14.337L37.7919 14.339L37.7906 14.341L39.6485 15.464ZM37.3336 17.5393L38.2785 19.4938L38.2839 19.4913L38.289 19.4887L37.3336 17.5393ZM35.0786 14.8155L36.1706 16.6918L36.183 16.6845L36.1955 16.6769L35.0786 14.8155ZM35.9269 13.9275L37.8405 14.9526L37.844 14.9456L37.8478 14.9385L35.9269 13.9275ZM35.7472 11.4031L34.3373 13.0538L34.3473 13.0623L34.3573 13.0708L35.7472 11.4031ZM6.29211 20.1509L6.61695 18.6204L2.36986 17.7189L2.045 19.2494L6.29211 20.1509ZM6.54194 16.5172L4.62182 9.85078L0.44972 11.0525L2.36986 17.7189L6.54194 16.5172ZM4.43779 9.89729L5.32865 13.981L9.57061 13.0557L8.67975 8.97191L4.43779 9.89729ZM7.44963 15.6892H7.64919V11.3475H7.44963V15.6892ZM9.47724 14.6892L12.6015 9.81119L8.94546 7.46951L5.82114 12.3475L9.47724 14.6892ZM12.0232 9.42041L7.32958 16.0128L10.8665 18.5309L15.56 11.9385L12.0232 9.42041ZM6.61936 17.6294L6.09315 20.1086L10.3402 21.0101L10.8665 18.5309L6.61936 17.6294ZM21.0147 8.79322C20.1087 8.79322 19.2583 9.04778 18.5001 9.51435L20.7756 13.212C20.8821 13.1465 20.9496 13.1349 21.0147 13.1349V8.79322ZM18.5082 9.50941C17.7911 9.94638 17.2025 10.5334 16.7254 11.2108L20.2753 13.7107C20.4634 13.4435 20.6331 13.2988 20.7675 13.217L18.5082 9.50941ZM16.7339 11.1989C16.2508 11.8752 15.8923 12.6308 15.6397 13.4409L19.7846 14.7333C19.9178 14.3061 20.0847 13.9775 20.2669 13.7225L16.7339 11.1989ZM15.6353 13.455C15.3801 14.2935 15.2619 15.1706 15.2619 16.0726H19.6036C19.6036 15.5513 19.6716 15.1046 19.7889 14.7192L15.6353 13.455ZM15.2619 16.0726C15.2619 16.9137 15.4005 17.7523 15.7459 18.5353L19.7182 16.7829C19.6646 16.6612 19.6036 16.4423 19.6036 16.0726H15.2619ZM15.7508 18.5462C16.0933 19.3113 16.6153 19.9888 17.3432 20.4876L19.7972 16.906C19.7951 16.9045 19.7902 16.9013 19.7801 16.8887C19.769 16.875 19.7441 16.8404 19.7134 16.772L15.7508 18.5462ZM17.3432 20.4876C18.1047 21.0093 18.9663 21.2368 19.8374 21.2368V16.8951C19.779 16.8951 19.7582 16.8879 19.7636 16.8894C19.7657 16.8901 19.7712 16.8919 19.7786 16.8954C19.7861 16.8989 19.7925 16.9027 19.7972 16.906L17.3432 20.4876ZM19.8374 21.2368C20.7319 21.2368 21.575 20.992 22.3312 20.5383L20.0974 16.8153C19.9888 16.8804 19.914 16.8951 19.8374 16.8951V21.2368ZM22.352 20.5256C23.0605 20.0896 23.6487 19.5125 24.1282 18.841L20.5952 16.3175C20.4096 16.5773 20.2328 16.7318 20.0765 16.828L22.352 20.5256ZM24.1366 18.8292C24.6182 18.1454 24.9731 17.3842 25.2187 16.5688L21.0613 15.3171C20.9343 15.7389 20.7705 16.0686 20.5868 16.3293L24.1366 18.8292ZM25.2124 16.5892C25.4766 15.7419 25.6002 14.8569 25.6002 13.9474H21.2585C21.2585 14.4614 21.1891 14.9068 21.0675 15.2967L25.2124 16.5892ZM25.6002 13.9474C25.6002 13.1047 25.4632 12.2597 25.1113 11.4738L21.1487 13.2481C21.1959 13.3535 21.2585 13.5662 21.2585 13.9474H25.6002ZM25.1113 11.4738C24.7624 10.6947 24.2239 10.0098 23.4708 9.5169L21.093 13.1496C21.0931 13.1496 21.0927 13.1494 21.0922 13.149C21.0917 13.1486 21.0911 13.1482 21.0908 13.1478C21.0898 13.1469 21.0908 13.1477 21.094 13.1515C21.0996 13.1584 21.1207 13.1857 21.1487 13.2481L25.1113 11.4738ZM23.5089 9.54244C22.7474 9.02067 21.8858 8.79322 21.0147 8.79322V13.1349C21.0731 13.1349 21.0939 13.1421 21.0885 13.1406C21.0864 13.14 21.0809 13.1382 21.0735 13.1346C21.066 13.1311 21.0596 13.1273 21.0549 13.1241L23.5089 9.54244ZM19.7476 20.4272C18.6398 20.4272 17.8327 20.2107 17.2376 19.881L15.1335 23.6787C16.5073 24.4399 18.0749 24.7689 19.7476 24.7689V20.4272ZM17.2474 19.8864C16.5973 19.5219 16.1388 19.0568 15.8177 18.4795L12.0236 20.5903C12.7534 21.9021 13.8049 22.9337 15.1237 23.6733L17.2474 19.8864ZM15.8233 18.4897C15.4973 17.8963 15.3132 17.1975 15.3132 16.342H10.9715C10.9715 17.8546 11.3062 19.2844 12.0179 20.58L15.8233 18.4897ZM15.3132 16.342C15.3132 15.2255 15.4823 14.2726 15.7857 13.457L11.7163 11.9434C11.2082 13.3096 10.9715 14.7846 10.9715 16.342H15.3132ZM15.7871 13.453C16.1037 12.5966 16.5273 11.9065 17.0418 11.3495L13.8526 8.4035C12.917 9.41634 12.2098 10.6087 11.7148 11.9474L15.7871 13.453ZM17.048 11.3428C17.574 10.7686 18.1734 10.3388 18.8581 10.0366L17.1049 6.0646C15.8606 6.61383 14.7705 7.40133 13.8464 8.41023L17.048 11.3428ZM18.8644 10.0338C19.5435 9.73146 20.2853 9.57291 21.1145 9.57291V5.2312C19.7087 5.2312 18.3618 5.50501 17.0986 6.06741L18.8644 10.0338ZM21.1145 9.57291C22.2709 9.57291 23.0844 9.79605 23.6591 10.1205L25.7938 6.33986C24.4129 5.56016 22.8184 5.2312 21.1145 5.2312V9.57291ZM23.6646 10.1236C24.3082 10.4846 24.748 10.94 25.0474 11.4995L28.8754 9.4508C28.1639 8.12126 27.1136 7.08 25.7883 6.33677L23.6646 10.1236ZM25.0505 11.5052C25.3671 12.0925 25.5489 12.7929 25.5489 13.6581H29.8905C29.8905 12.1552 29.5668 10.7336 28.8724 9.44516L25.0505 11.5052ZM25.5489 13.6581C25.5489 14.7743 25.3799 15.7323 25.0749 16.5571L29.1473 18.0626C29.6539 16.6924 29.8905 15.2158 29.8905 13.6581H25.5489ZM25.0749 16.5571C24.7593 17.4108 24.3333 18.1047 23.8108 18.67L26.999 21.6171C27.9398 20.5993 28.6513 19.4041 29.1473 18.0626L25.0749 16.5571ZM23.8103 18.6705C23.2841 19.2401 22.6828 19.6694 21.994 19.9735L23.7472 23.9455C24.9874 23.3981 26.0756 22.6168 26.9995 21.6165L23.8103 18.6705ZM21.994 19.9735C21.322 20.2701 20.5816 20.4272 19.7476 20.4272V24.7689C21.1485 24.7689 22.4901 24.5003 23.7472 23.9455L21.994 19.9735ZM31.4606 9.97202H35.1587V5.63031H31.4606V9.97202ZM35.1587 9.97202C36.0693 9.97202 36.6926 10.1224 37.1113 10.3211L38.9729 6.39871C37.8218 5.85239 36.5225 5.63031 35.1587 5.63031V9.97202ZM37.1179 10.3241C37.5702 10.537 37.8307 10.7897 37.9979 11.0621L41.6981 8.7907C41.0406 7.71947 40.0971 6.92778 38.9663 6.39568L37.1179 10.3241ZM37.9979 11.0621C38.1726 11.3467 38.2958 11.727 38.2958 12.2811H42.6375C42.6375 11.0393 42.3483 9.84978 41.6981 8.7907L37.9979 11.0621ZM38.2958 12.2811C38.2958 13.1741 38.1002 13.8314 37.793 14.337L41.5038 16.591C42.2877 15.3006 42.6375 13.836 42.6375 12.2811H38.2958ZM37.7906 14.341C37.4834 14.8495 37.0378 15.2668 36.3784 15.59L38.289 19.4887C39.6385 18.8274 40.7361 17.8612 41.5062 16.587L37.7906 14.341ZM36.3887 15.5849C35.7399 15.8987 34.8862 16.0969 33.7617 16.0969V20.4386C35.3909 20.4386 36.9187 20.1512 38.2785 19.4938L36.3887 15.5849ZM33.7617 16.0969H33.473V20.4386H33.7617V16.0969ZM29.2268 19.5333L29.1036 20.111L33.3498 21.0163L33.473 20.4386L29.2268 19.5333ZM29.3085 20.1545L31.4606 9.97202L27.2128 9.07416L25.0607 19.2566L29.3085 20.1545ZM31.0842 10.7533L30.3125 14.3513L34.5579 15.2617L35.3293 11.6637L31.0842 10.7533ZM32.7004 17.3056H33.7916V12.9639H32.7004V17.3056ZM33.7916 17.3056C34.6043 17.3056 35.4224 17.127 36.1706 16.6918L33.9869 12.9391C33.9869 12.9391 33.9867 12.9393 33.9864 12.9394C33.9861 12.9396 33.985 12.94 33.9834 12.9407C33.9802 12.942 33.9728 12.9447 33.9598 12.9479C33.9343 12.9542 33.8811 12.9639 33.7916 12.9639V17.3056ZM36.1955 16.6769C36.8943 16.2578 37.4538 15.6742 37.8405 14.9526L34.0133 12.9023C34.003 12.9213 33.9967 12.9279 33.9954 12.9295C33.9935 12.9312 33.9853 12.9399 33.9617 12.954L36.1955 16.6769ZM37.8478 14.9385C38.2255 14.2211 38.397 13.447 38.397 12.6603H34.0553C34.0553 12.8049 34.0274 12.8755 34.0057 12.9164L37.8478 14.9385ZM38.397 12.6603C38.397 11.6991 38.1184 10.5533 37.1369 9.7354L34.3573 13.0708C34.2084 12.9466 34.1199 12.8001 34.0778 12.6898C34.0418 12.5949 34.0553 12.5688 34.0553 12.6603H38.397ZM37.1572 9.75244C36.3027 9.02263 35.2585 8.82315 34.3603 8.82315V13.1649C34.4309 13.1649 34.4805 13.1689 34.5126 13.1729C34.5443 13.177 34.5541 13.1806 34.5467 13.1785C34.5392 13.1762 34.5128 13.1677 34.4743 13.1475C34.435 13.1269 34.3872 13.0965 34.3373 13.0538L37.1572 9.75244ZM34.3603 8.82315H33.4722V13.1649H34.3603V8.82315ZM47.5442 20.0281H41.4273V24.3698H47.5442V20.0281ZM41.4273 20.0281L43.5667 9.97202L39.3199 9.06854L37.1805 19.1246L41.4273 20.0281ZM43.5667 9.97202H49.883V5.63031H43.5667V9.97202ZM49.883 8.98279H46.2029V13.3245H49.883V8.98279ZM43.0158 11.5717L42.9813 11.7356L47.2311 12.6255L47.2652 12.4616L43.0158 11.5717ZM46.1687 15.6593H48.5048V11.3176H46.1687V15.6593ZM48.5048 14.3508H45.061V18.6925H48.5048V14.3508ZM41.8772 16.9239L41.8441 17.0778L46.0892 17.9887L46.1223 17.8348L41.8772 16.9239ZM45.0279 21.0173H47.5442V16.6756H45.0279V21.0173ZM41.8441 17.0778C41.7933 17.315 41.7003 17.7229 41.675 18.0918C41.6454 18.5193 41.6704 19.2972 42.246 20.0094L45.6227 17.2803C45.8091 17.511 45.9193 17.7659 45.9711 17.9991C46.0175 18.2064 46.0086 18.3561 46.0064 18.3901C46.004 18.4247 46.0018 18.4185 46.0175 18.3336C46.0333 18.2508 46.055 18.1488 46.0892 17.9887L41.8441 17.0778ZM45.0279 16.6756C44.8643 16.6756 44.7601 16.6754 44.6757 16.6732C44.5894 16.6709 44.5837 16.6675 44.6182 16.6724C44.6518 16.6773 44.8 16.7001 44.9932 16.7888C45.2103 16.8886 45.4363 17.0497 45.6227 17.2803L42.246 20.0094C42.8215 20.7216 43.577 20.9091 44.0011 20.9701C44.3671 21.0226 44.7853 21.0173 45.0279 21.0173V16.6756ZM45.061 14.3508C44.905 14.3508 44.5924 14.347 44.3069 14.3818C43.9626 14.4237 43.4258 14.5425 42.9168 14.9539L45.6458 18.3307C45.4794 18.4651 45.3033 18.5572 45.1403 18.6158C44.9896 18.6698 44.8743 18.6865 44.832 18.6916C44.7921 18.6965 44.7821 18.695 44.8333 18.6938C44.8841 18.6926 44.9487 18.6925 45.061 18.6925V14.3508ZM46.1223 17.8348C46.1459 17.7249 46.1595 17.6618 46.1714 17.6124C46.1833 17.5627 46.1825 17.5727 46.1695 17.6108C46.1557 17.651 46.115 17.7603 46.0306 17.8962C45.9391 18.0434 45.8121 18.1962 45.6458 18.3307L42.9168 14.9539C42.4077 15.3652 42.1789 15.8652 42.0658 16.193C41.9719 16.4647 41.91 16.7712 41.8772 16.9239L46.1223 17.8348ZM47.8649 14.8682C47.8563 14.9092 47.8487 14.9448 47.8416 14.9778C47.8343 15.0106 47.8283 15.0382 47.8229 15.0623C47.8175 15.0864 47.8134 15.1048 47.8099 15.1192C47.8063 15.1335 47.8044 15.1417 47.8033 15.1452C47.8012 15.1537 47.8063 15.1332 47.8196 15.0962C47.834 15.0561 47.8571 14.9997 47.8913 14.9342L51.7407 16.9422C51.9787 16.4857 52.0699 15.9673 52.1106 15.776L47.8649 14.8682ZM48.5048 18.6925C48.7004 18.6925 49.2263 18.7118 49.7227 18.5744L48.5637 14.3901C48.6351 14.3704 48.695 14.3598 48.7371 14.354C48.7762 14.3487 48.7973 14.348 48.7886 14.3485C48.7848 14.3487 48.7764 14.349 48.7618 14.3494C48.7469 14.3497 48.7281 14.35 48.7034 14.3503C48.6787 14.3505 48.6502 14.3506 48.6169 14.3507C48.583 14.3508 48.5466 14.3508 48.5048 14.3508V18.6925ZM47.8913 14.9342C48.0302 14.6675 48.2739 14.4704 48.5637 14.3901L49.7227 18.5744C50.5924 18.3335 51.3231 17.7424 51.7407 16.9422L47.8913 14.9342ZM48.5048 15.6593C48.6296 15.6593 48.7224 15.6593 48.8014 15.6602C48.8806 15.6611 48.9235 15.6627 48.9463 15.664C48.9691 15.6653 48.9479 15.6651 48.9013 15.6572C48.8502 15.6486 48.7656 15.6304 48.6619 15.592L50.166 11.5193C49.7821 11.3775 49.4301 11.3432 49.1995 11.3297C48.9775 11.3167 48.7213 11.3176 48.5048 11.3176V15.6593ZM52.1106 15.776C52.1559 15.5642 52.2105 15.314 52.2441 15.0942C52.2791 14.8657 52.3193 14.5143 52.2609 14.1092L47.9634 14.7287C47.9477 14.6193 47.9477 14.5326 47.9499 14.481C47.952 14.4336 47.9561 14.4129 47.9526 14.4354C47.9493 14.458 47.9417 14.5003 47.926 14.578C47.9105 14.6555 47.891 14.7462 47.8649 14.8682L52.1106 15.776ZM48.6619 15.592C48.2883 15.4541 48.0204 15.1228 47.9634 14.7287L52.2609 14.1092C52.0905 12.9271 51.2865 11.9331 50.166 11.5193L48.6619 15.592ZM42.9813 11.7356C42.9319 11.9719 42.8413 12.3789 42.8177 12.7469C42.7903 13.1739 42.8191 13.9485 43.3943 14.6566L46.7643 11.9192C46.9505 12.1485 47.0612 12.4021 47.1138 12.6342C47.1608 12.8408 47.1529 12.9902 47.1505 13.0245C47.1483 13.0592 47.1461 13.0534 47.1616 12.9689C47.1765 12.8866 47.1977 12.785 47.2311 12.6255L42.9813 11.7356ZM46.1687 11.3176C46.0056 11.3176 45.902 11.3174 45.8181 11.3152C45.7323 11.3129 45.7272 11.3095 45.7617 11.3145C45.7956 11.3194 45.9435 11.3422 46.1361 11.4305C46.3524 11.5297 46.5779 11.6899 46.7643 11.9192L43.3943 14.6566C43.9693 15.3647 44.7218 15.5515 45.1451 15.6122C45.5101 15.6646 45.9272 15.6593 46.1687 15.6593V11.3176ZM46.2029 8.98279C46.046 8.98279 45.7321 8.97902 45.4458 9.014C45.1004 9.05619 44.5614 9.1757 44.0513 9.59011L46.7887 12.9601C46.6219 13.0956 46.4452 13.1883 46.2816 13.2473C46.1304 13.3017 46.0146 13.3185 45.9725 13.3237C45.9323 13.3286 45.9226 13.327 45.9739 13.3258C46.0251 13.3246 46.09 13.3245 46.2029 13.3245V8.98279ZM47.2652 12.4616C47.2886 12.351 47.3019 12.2875 47.3135 12.2377C47.3252 12.1876 47.3247 12.1976 47.3116 12.2357C47.2981 12.276 47.2579 12.386 47.1735 12.5227C47.0824 12.6709 46.9554 12.8247 46.7887 12.9601L44.0513 9.59011C43.5411 10.0045 43.3135 10.5077 43.2014 10.8371C43.1086 11.1101 43.0478 11.4181 43.0158 11.5717L47.2652 12.4616ZM49.3992 9.37379C49.3748 9.48871 49.3571 9.57077 49.3411 9.64002C49.3254 9.70905 49.317 9.74107 49.3134 9.75344C49.3102 9.7647 49.3178 9.736 49.339 9.68539C49.362 9.63033 49.3987 9.55546 49.4532 9.47234L53.0823 11.8559C53.4714 11.2632 53.5889 10.5432 53.6446 10.2835L49.3992 9.37379ZM49.883 13.3245C50.1484 13.3245 50.877 13.3606 51.5383 13.1041L49.968 9.05627C50.0608 9.02032 50.1416 9.00016 50.2002 8.98911C50.2542 8.97899 50.2838 8.97769 50.2721 8.97848C50.2594 8.97932 50.2263 8.98092 50.1555 8.98184C50.0844 8.98276 50.0005 8.98279 49.883 8.98279V13.3245ZM49.4532 9.47234C49.5775 9.28345 49.7574 9.13801 49.968 9.05627L51.5383 13.1041C52.1703 12.8589 52.71 12.4225 53.0823 11.8559L49.4532 9.47234ZM43.5667 9.97202C43.612 9.7589 43.6448 9.60558 43.6752 9.47696C43.7059 9.34798 43.7238 9.28988 43.7308 9.26894C43.7373 9.25013 43.7192 9.30977 43.6614 9.40323C43.5962 9.508 43.5002 9.62561 43.371 9.73019L40.639 6.35579C40.0547 6.82871 39.7782 7.41153 39.6249 7.85798C39.4906 8.2482 39.3964 8.70967 39.3199 9.06854L43.5667 9.97202ZM43.5667 5.63031C43.1998 5.63031 42.7287 5.62655 42.3192 5.6765C41.8506 5.73365 41.2229 5.88288 40.639 6.35579L43.371 9.73019C43.2418 9.83477 43.1067 9.90445 42.9906 9.94613C42.8872 9.98331 42.825 9.98868 42.8448 9.98627C42.8668 9.98361 42.9273 9.97829 43.0598 9.9752C43.1919 9.97213 43.3488 9.97202 43.5667 9.97202V5.63031ZM41.4273 20.0281C41.109 20.0281 40.8694 20.0279 40.6667 20.0226C40.4618 20.0171 40.3543 20.0074 40.3011 19.9998C40.2474 19.9921 40.322 19.996 40.4534 20.0563C40.6086 20.1276 40.7847 20.2506 40.9301 20.4305L37.5558 23.1625C38.2128 23.9739 39.0852 24.2115 39.6843 24.2975C40.2252 24.3751 40.8753 24.3698 41.4273 24.3698V20.0281ZM37.1805 19.1246C37.0658 19.6645 36.9252 20.2993 36.8886 20.8445C36.8481 21.4484 36.8989 22.3512 37.5558 23.1625L40.9301 20.4305C41.0759 20.6104 41.1594 20.8082 41.1969 20.9748C41.2286 21.1157 41.217 21.1896 41.2205 21.1354C41.2243 21.0817 41.2371 20.9747 41.2745 20.7732C41.3114 20.5738 41.3611 20.3394 41.4273 20.0281L37.1805 19.1246ZM47.0604 20.4204C47.0359 20.5358 47.0186 20.6181 47.0028 20.6876C46.9871 20.7569 46.9787 20.789 46.9752 20.8015C46.9722 20.8128 46.9795 20.7841 47.0007 20.7333C47.0235 20.6781 47.0601 20.6029 47.1146 20.5195L50.7487 22.8955C51.1375 22.3007 51.2531 21.5785 51.3082 21.318L47.0604 20.4204ZM47.5442 24.3698C47.8104 24.3698 48.5409 24.406 49.2033 24.1484L47.6299 20.1019C47.7227 20.0657 47.8039 20.0455 47.8628 20.0344C47.9168 20.0242 47.9463 20.0229 47.9347 20.0237C47.9217 20.0246 47.8885 20.0262 47.8175 20.0271C47.7461 20.028 47.662 20.0281 47.5442 20.0281V24.3698ZM47.1146 20.5195C47.2387 20.33 47.4188 20.1839 47.6299 20.1019L49.2033 24.1484C49.8363 23.9022 50.3769 23.4641 50.7487 22.8955L47.1146 20.5195ZM51.3082 21.318C51.3695 21.0277 51.4436 20.6849 51.4824 20.3843C51.5234 20.0687 51.5589 19.5848 51.4059 19.0447L47.2286 20.2276C47.1884 20.0859 47.1779 19.968 47.1762 19.8937C47.1749 19.8266 47.1806 19.7963 47.1768 19.8269C47.1727 19.8574 47.1635 19.9153 47.1426 20.0221C47.122 20.1285 47.0956 20.2532 47.0604 20.4204L51.3082 21.318ZM47.5442 21.0173C47.7152 21.0173 47.8424 21.0173 47.951 21.019C48.0598 21.0206 48.1184 21.0236 48.1491 21.026C48.1797 21.0285 48.1488 21.028 48.0837 21.0127C48.0112 20.9958 47.898 20.9611 47.7675 20.8925L49.7886 17.0499C49.2917 16.7886 48.8112 16.7233 48.4937 16.698C48.1917 16.674 47.8408 16.6756 47.5442 16.6756V21.0173ZM51.4059 19.0447C51.163 18.1863 50.5782 17.4652 49.7886 17.0499L47.7675 20.8925C47.5043 20.7541 47.3095 20.5137 47.2286 20.2276L51.4059 19.0447ZM49.883 9.97202C50.0542 9.97202 50.1821 9.97208 50.2909 9.97373C50.4 9.97539 50.4586 9.97834 50.4895 9.98079C50.5204 9.98326 50.4895 9.98279 50.4244 9.96746C50.3519 9.95048 50.2385 9.91571 50.1077 9.84687L52.1318 6.00578C51.6341 5.74356 51.1522 5.67814 50.8347 5.65282C50.5318 5.62869 50.1804 5.63031 49.883 5.63031V9.97202ZM53.6446 10.2835C53.707 9.99256 53.7821 9.64922 53.822 9.3482C53.8638 9.03229 53.9007 8.54743 53.7488 8.00591L49.5688 9.18015C49.5289 9.03798 49.5186 8.91975 49.5172 8.8454C49.5159 8.77827 49.5218 8.74801 49.5178 8.77873C49.5137 8.80947 49.5042 8.86757 49.483 8.97457C49.4619 9.08124 49.4353 9.2062 49.3992 9.37379L53.6446 10.2835ZM50.1077 9.84687C49.8442 9.70799 49.6494 9.46692 49.5688 9.18015L53.7488 8.00591C53.507 7.14557 52.9222 6.42237 52.1318 6.00578L50.1077 9.84687ZM31.4606 5.63031C31.0935 5.63031 30.6218 5.62654 30.2118 5.67658C29.7429 5.73383 29.1145 5.88332 28.53 6.35715L31.2644 9.72973C31.135 9.8345 30.9998 9.90432 30.8837 9.94611C30.7803 9.98334 30.7182 9.98874 30.7377 9.98632C30.76 9.98361 30.8205 9.97829 30.9532 9.97522C31.0856 9.97213 31.2424 9.97202 31.4606 9.97202V5.63031ZM31.4606 9.97202C31.5059 9.75857 31.5385 9.60498 31.5689 9.47614C31.5993 9.34698 31.6169 9.28872 31.6242 9.26771C31.6308 9.24886 31.6126 9.30855 31.5548 9.40214C31.4899 9.50713 31.3936 9.62496 31.2644 9.72973L28.53 6.35715C27.9457 6.83098 27.6695 7.41479 27.5164 7.86185C27.3827 8.25262 27.2888 8.71474 27.2128 9.07416L31.4606 9.97202ZM7.32958 16.0128C7.24888 16.1261 7.02526 16.4224 6.87023 16.7753L10.8453 18.5216C10.8358 18.543 10.8262 18.5635 10.8165 18.5829C10.8068 18.6022 10.7977 18.6191 10.7898 18.6332C10.7819 18.6473 10.7754 18.6582 10.771 18.6655C10.7666 18.6727 10.764 18.6767 10.7639 18.6768C10.7639 18.6768 10.7643 18.6761 10.7654 18.6745C10.7665 18.6728 10.7682 18.6704 10.7704 18.6671C10.775 18.6604 10.7814 18.6511 10.7904 18.6383C10.7994 18.6254 10.8099 18.6105 10.8228 18.5923C10.8358 18.5739 10.8499 18.5541 10.8665 18.5309L7.32958 16.0128ZM10.8665 18.5309C10.8724 18.503 10.8774 18.4792 10.8821 18.4573C10.8868 18.4354 10.8907 18.4175 10.8941 18.4023C10.8974 18.387 10.8999 18.376 10.9018 18.368C10.9027 18.3642 10.9034 18.3613 10.9038 18.3594C10.9043 18.3575 10.9045 18.3566 10.9045 18.3567C10.9045 18.3568 10.9033 18.3614 10.901 18.3695C10.8986 18.3777 10.895 18.3899 10.89 18.4052C10.8849 18.4207 10.8786 18.4388 10.8709 18.4589C10.8632 18.4792 10.8547 18.5002 10.8453 18.5216L6.87023 16.7753C6.71518 17.1282 6.64826 17.4933 6.61936 17.6294L10.8665 18.5309ZM12.3075 9.97202C12.6221 9.97202 12.8696 9.9721 13.0811 9.97609C13.2944 9.98013 13.4273 9.9876 13.5124 9.99636C13.602 10.0056 13.5751 10.0103 13.4891 9.98174C13.3885 9.94828 13.1975 9.86603 13.0016 9.6862L15.9376 6.48772C15.2448 5.85178 14.4138 5.72445 13.9566 5.67742C13.4716 5.62754 12.8754 5.63031 12.3075 5.63031V9.97202ZM15.56 11.9385C15.8893 11.476 16.2374 10.9919 16.4781 10.5679C16.705 10.1681 17.0832 9.41731 16.967 8.48412L12.6585 9.02075C12.6257 8.75689 12.6694 8.55361 12.7005 8.45221C12.7271 8.36562 12.7466 8.34643 12.7021 8.42477C12.6599 8.49918 12.5889 8.61182 12.4685 8.7879C12.3491 8.96249 12.2056 9.16414 12.0232 9.42041L15.56 11.9385ZM13.0016 9.6862C12.812 9.5121 12.6903 9.27624 12.6585 9.02075L16.967 8.48412C16.8715 7.71762 16.5067 7.01004 15.9376 6.48772L13.0016 9.6862ZM12.6015 9.81119C12.6284 9.76929 12.6515 9.7332 12.673 9.69985C12.6944 9.66669 12.7122 9.6392 12.7278 9.61554C12.7434 9.59191 12.7551 9.57443 12.7641 9.56135C12.7731 9.5483 12.7777 9.54189 12.7789 9.54027C12.782 9.53609 12.7643 9.56067 12.729 9.59896C12.7108 9.61871 12.6881 9.64189 12.661 9.66704C12.6337 9.69236 12.6038 9.71792 12.5716 9.74302L9.90424 6.3173C9.39436 6.71431 9.07226 7.27154 8.94546 7.46951L12.6015 9.81119ZM12.3075 5.63031C12.0725 5.63031 11.4295 5.601 10.8202 5.81624L12.2663 9.91004C12.2278 9.92364 12.1901 9.93501 12.1541 9.94434C12.1183 9.9536 12.0865 9.96022 12.0601 9.96488C12.0088 9.97398 11.9786 9.9756 11.9837 9.97525C11.9857 9.97514 11.9937 9.97465 12.0095 9.97417C12.0254 9.97365 12.0464 9.97316 12.0747 9.97281C12.103 9.97246 12.1358 9.97224 12.1753 9.97213C12.215 9.97202 12.2578 9.97202 12.3075 9.97202V5.63031ZM12.5716 9.74302C12.4795 9.81474 12.3764 9.87116 12.2663 9.91004L10.8202 5.81624C10.4899 5.93291 10.1806 6.1021 9.90424 6.3173L12.5716 9.74302ZM4.62182 9.85078C4.5364 9.55424 4.47182 9.32953 4.42167 9.13776C4.37106 8.94415 4.34963 8.83761 4.34119 8.7809C4.33258 8.72307 4.34851 8.78546 4.33264 8.91558C4.31389 9.06927 4.25677 9.26945 4.13175 9.467L0.46293 7.14532C-0.0724727 7.99139 -0.0364259 8.86035 0.0466763 9.41935C0.123636 9.93702 0.300667 10.535 0.44972 11.0525L4.62182 9.85078ZM4.53057 5.63031C3.99203 5.63031 3.36843 5.6257 2.84967 5.69503C2.28953 5.76989 1.44452 5.97577 0.779704 6.72443L4.02614 9.60732C3.8709 9.78213 3.69435 9.89243 3.55186 9.953C3.43122 10.0043 3.36685 10.0062 3.42481 9.99848C3.48164 9.99088 3.58993 9.98201 3.79001 9.97704C3.98818 9.97216 4.22198 9.97202 4.53057 9.97202V5.63031ZM4.13175 9.467C4.10038 9.51655 4.06508 9.56347 4.02614 9.60732L0.779704 6.72443C0.66292 6.85594 0.556982 6.9967 0.46293 7.14532L4.13175 9.467ZM30.3125 14.3513C30.3106 14.361 30.2542 14.5983 30.2379 14.8345C30.2178 15.1293 30.2243 15.8125 30.7388 16.449L34.1156 13.7197C34.5891 14.3059 34.5837 14.9259 34.5695 15.1323C34.5625 15.2332 34.5489 15.3028 34.5484 15.3056C34.5476 15.3105 34.5478 15.308 34.5579 15.2617L30.3125 14.3513ZM32.7004 12.9639C32.6532 12.9639 32.6505 12.9637 32.6557 12.9639C32.6584 12.9639 32.7295 12.9652 32.8296 12.9796C33.0342 13.009 33.6418 13.1336 34.1156 13.7197L30.7388 16.449C31.2533 17.0855 31.9197 17.2353 32.2123 17.2773C32.4467 17.3109 32.6904 17.3056 32.7004 17.3056V12.9639ZM4.53057 9.97202C4.72806 9.97202 4.86987 9.97213 4.98948 9.97465C5.10923 9.97723 5.16418 9.98163 5.18435 9.98385C5.2025 9.98589 5.14766 9.9816 5.0545 9.95145C4.95068 9.91786 4.82477 9.86055 4.69875 9.77081L7.21681 6.2339C6.66099 5.83819 6.08856 5.71595 5.66435 5.66876C5.29056 5.62719 4.86314 5.63031 4.53057 5.63031V9.97202ZM8.67975 8.97191C8.60884 8.64696 8.52081 8.22872 8.40052 7.87239C8.264 7.46799 8.02255 6.93475 7.51747 6.47605L4.59851 9.69011C4.484 9.5861 4.40116 9.47528 4.34623 9.38103C4.2969 9.29642 4.28103 9.24378 4.28689 9.26107C4.29337 9.28031 4.30938 9.33303 4.33739 9.4495C4.36536 9.56583 4.3957 9.70433 4.43779 9.89729L8.67975 8.97191ZM4.69875 9.77081C4.66377 9.74593 4.63032 9.71895 4.59851 9.69011L7.51747 6.47605C7.42212 6.38946 7.32174 6.3086 7.21681 6.2339L4.69875 9.77081ZM29.2062 20.0281C28.9199 20.0281 28.7047 20.0279 28.5226 20.0235C28.3389 20.0191 28.242 20.0111 28.1935 20.0048C28.1444 19.9984 28.2076 20.0011 28.3235 20.0484C28.4589 20.1035 28.626 20.2027 28.778 20.3602L25.6521 23.3735C26.3043 24.0501 27.0955 24.2401 27.6323 24.3101C28.124 24.3741 28.7096 24.3698 29.2062 24.3698V20.0281ZM25.0607 19.2566C24.958 19.7424 24.8326 20.3144 24.7936 20.8087C24.7511 21.3483 24.7734 22.1617 25.3005 22.9398L28.8949 20.5047C29.0176 20.6858 29.0803 20.87 29.106 21.0138C29.1283 21.137 29.118 21.1993 29.1218 21.15C29.1259 21.1011 29.1381 21.0046 29.1717 20.824C29.2051 20.6449 29.2493 20.4346 29.3085 20.1545L25.0607 19.2566ZM28.778 20.3602C28.8209 20.4049 28.8602 20.4533 28.8949 20.5047L25.3005 22.9398C25.405 23.0942 25.5227 23.2393 25.6521 23.3735L28.778 20.3602ZM6.19263 20.0281C5.90521 20.0281 5.68934 20.0279 5.50647 20.0235C5.32209 20.019 5.22475 20.011 5.1758 20.0046C5.12655 19.9982 5.18996 20.0009 5.30643 20.0486C5.44235 20.1042 5.61005 20.2042 5.76177 20.3624L2.62733 23.3667C3.28013 24.0478 4.07422 24.2392 4.61292 24.3097C5.1063 24.3742 5.69412 24.3698 6.19263 24.3698V20.0281ZM2.045 19.2494C1.9415 19.737 1.81515 20.3111 1.77581 20.8072C1.73286 21.3488 1.75527 22.1653 2.28595 22.9453L5.87557 20.5029C5.9989 20.6842 6.06189 20.869 6.08805 21.0135C6.11046 21.1373 6.10001 21.1999 6.10395 21.1504C6.10783 21.1012 6.1202 21.0043 6.15412 20.823C6.18771 20.6432 6.23241 20.432 6.29211 20.1509L2.045 19.2494ZM5.76177 20.3624C5.80355 20.406 5.8416 20.453 5.87557 20.5029L2.28595 22.9453C2.38783 23.095 2.50202 23.236 2.62733 23.3667L5.76177 20.3624ZM6.19263 24.3698C6.52477 24.3698 6.95123 24.3729 7.32413 24.3315C7.74698 24.2847 8.31835 24.1632 8.87363 23.7693L6.36141 20.2282C6.48754 20.1388 6.61334 20.0817 6.71678 20.0484C6.80961 20.0185 6.86413 20.0142 6.84581 20.0163C6.82551 20.0185 6.77053 20.0229 6.65089 20.0254C6.53141 20.028 6.38979 20.0281 6.19263 20.0281V24.3698ZM6.09315 20.1086C6.05223 20.3015 6.0227 20.44 5.99543 20.5564C5.96811 20.6729 5.95239 20.7258 5.94599 20.7452C5.94018 20.7626 5.95565 20.7102 6.0042 20.6256C6.0583 20.5314 6.1402 20.4201 6.2539 20.3153L9.19619 23.508C9.69685 23.0466 9.93426 22.5129 10.0679 22.109C10.1858 21.7528 10.2713 21.335 10.3402 21.0101L6.09315 20.1086ZM8.87363 23.7693C8.9866 23.6892 9.09435 23.6019 9.19619 23.508L6.2539 20.3153C6.28785 20.284 6.32377 20.255 6.36141 20.2282L8.87363 23.7693ZM29.1036 20.111C29.0626 20.303 29.0331 20.4409 29.0059 20.5568C28.9785 20.6728 28.963 20.7254 28.9565 20.7447C28.9508 20.7621 28.9663 20.7099 29.0146 20.6257C29.0683 20.5319 29.1497 20.421 29.2629 20.3164L32.2098 23.5049C32.7078 23.0446 32.9444 22.513 33.0776 22.1107C33.1954 21.7559 33.2809 21.3398 33.3498 21.0163L29.1036 20.111ZM29.2062 24.3698C29.537 24.3698 29.9616 24.3729 30.3331 24.3318C30.7545 24.2853 31.3236 24.1648 31.8777 23.7737L29.3736 20.2268C29.4995 20.1379 29.6252 20.0813 29.728 20.0482C29.8205 20.0185 29.8748 20.0143 29.8566 20.0163C29.8363 20.0186 29.7815 20.0229 29.6626 20.0255C29.5435 20.028 29.4024 20.0281 29.2062 20.0281V24.3698ZM29.2629 20.3164C29.2979 20.2841 29.3348 20.2542 29.3736 20.2268L31.8777 23.7737C31.9941 23.6914 32.1051 23.6017 32.2098 23.5049L29.2629 20.3164ZM6.61695 18.6204C6.65149 18.4576 6.75859 18.0244 6.74215 17.563L2.40319 17.7177C2.4022 17.6897 2.4021 17.6626 2.40274 17.6366C2.40339 17.6108 2.40472 17.5878 2.40628 17.5684C2.40783 17.5492 2.40954 17.5341 2.41082 17.5239C2.41146 17.5189 2.412 17.515 2.41238 17.5124C2.41275 17.5099 2.41298 17.5085 2.41299 17.5084C2.41299 17.5084 2.41282 17.5094 2.4124 17.5118C2.41198 17.5142 2.41135 17.5177 2.41046 17.5225C2.40864 17.5322 2.40605 17.5456 2.40231 17.564C2.39857 17.5825 2.39411 17.6041 2.38859 17.6304C2.38304 17.6568 2.37697 17.6854 2.36986 17.7189L6.61695 18.6204ZM2.36986 17.7189C2.37934 17.7518 2.38742 17.7799 2.39485 17.8058C2.40222 17.8317 2.40821 17.8528 2.41326 17.871C2.4183 17.8892 2.42184 17.9023 2.42435 17.9119C2.42558 17.9166 2.42645 17.92 2.42704 17.9224C2.42763 17.9247 2.42788 17.9258 2.42787 17.9257C2.42785 17.9257 2.42753 17.9243 2.42698 17.9218C2.42642 17.9192 2.4256 17.9154 2.4246 17.9104C2.4226 17.9004 2.41982 17.8854 2.41691 17.8664C2.41397 17.8471 2.411 17.8243 2.40852 17.7986C2.40602 17.7727 2.40419 17.7456 2.40319 17.7177L6.74215 17.563C6.72568 17.1016 6.58799 16.677 6.54194 16.5172L2.36986 17.7189ZM35.3293 11.6637C35.3364 11.6308 35.3356 11.6351 35.3334 11.6449C35.331 11.6544 35.3166 11.7155 35.2881 11.7977C35.226 11.9783 35.0577 12.3764 34.6417 12.7125L31.9124 9.33585C31.4595 9.7021 31.2671 10.141 31.1844 10.3805C31.1458 10.4922 31.1222 10.5872 31.1103 10.6362C31.0986 10.6855 31.0883 10.7348 31.0842 10.7533L35.3293 11.6637ZM33.4722 8.82315C33.4532 8.82315 33.4027 8.82304 33.3522 8.82421C33.3018 8.82538 33.2041 8.82858 33.0866 8.84288C32.835 8.87351 32.3656 8.96963 31.9124 9.33585L34.6417 12.7125C34.226 13.0486 33.8013 13.1296 33.6119 13.1527C33.5254 13.1632 33.4627 13.1645 33.4529 13.1648C33.4429 13.165 33.4385 13.1649 33.4722 13.1649V8.82315ZM33.473 16.0969C33.1064 16.0969 32.6356 16.0931 32.2261 16.1431C31.7575 16.2002 31.1301 16.3493 30.5461 16.8219L33.2773 20.1969C33.1484 20.3014 33.0133 20.371 32.8974 20.4127C32.7938 20.4499 32.7319 20.4552 32.7515 20.4528C32.7734 20.4502 32.8339 20.4448 32.9664 20.4418C33.0985 20.4387 33.2554 20.4386 33.473 20.4386V16.0969ZM33.473 20.4386C33.5186 20.2256 33.5511 20.0723 33.5818 19.9438C33.6125 19.8149 33.6304 19.7568 33.6374 19.7359C33.6439 19.7171 33.6258 19.7767 33.5677 19.8701C33.5028 19.9749 33.4065 20.0924 33.2773 20.1969L30.5461 16.8219C29.9622 17.2945 29.6854 17.8771 29.5321 18.3233C29.3978 18.7133 29.3033 19.1746 29.2268 19.5333L33.473 20.4386Z" fill="black"/>
</g>
</g>
<defs>
<clipPath id="clip0_8228_3553">
<rect width="54" height="19.5377" fill="white" transform="translate(0 5.2312)"/>
</clipPath>
</defs>
</svg>
