<svg width="21" height="21" viewBox="0 0 21 21" fill="none" xmlns="http://www.w3.org/2000/svg">
<path d="M6.6712 10.0511C6.6712 8.20861 8.16401 6.71456 10.006 6.71456C11.848 6.71456 13.3416 8.20861 13.3416 10.0511C13.3416 11.8936 11.848 13.3877 10.006 13.3877C8.16401 13.3877 6.6712 11.8936 6.6712 10.0511ZM4.86804 10.0511C4.86804 12.8896 7.1683 15.1906 10.006 15.1906C12.8437 15.1906 15.144 12.8896 15.144 10.0511C15.144 7.2126 12.8437 4.91168 10.006 4.91168C7.1683 4.91168 4.86804 7.2126 4.86804 10.0511ZM14.1466 4.7079C14.1465 4.94545 14.2169 5.17769 14.3487 5.37526C14.4806 5.57282 14.6681 5.72684 14.8874 5.81784C15.1068 5.90883 15.3482 5.93271 15.5811 5.88646C15.8141 5.84021 16.0281 5.72591 16.1961 5.558C16.364 5.3901 16.4785 5.17613 16.5249 4.94317C16.5713 4.7102 16.5477 4.4687 16.4569 4.2492C16.3661 4.02969 16.2122 3.84205 16.0148 3.71C15.8174 3.57794 15.5853 3.50741 15.3478 3.50731H15.3474C15.029 3.50746 14.7238 3.63398 14.4987 3.85909C14.2735 4.0842 14.1469 4.38949 14.1466 4.7079ZM5.96358 18.1981C4.98803 18.1537 4.45779 17.9911 4.10542 17.8538C3.63826 17.6719 3.30494 17.4552 2.95449 17.1052C2.60404 16.7551 2.38711 16.422 2.20604 15.9547C2.06868 15.6024 1.90618 15.0718 1.86184 14.096C1.81333 13.041 1.80364 12.7241 1.80364 10.0512C1.80364 7.37835 1.81413 7.06231 1.86184 6.00641C1.90626 5.03059 2.06996 4.50108 2.20604 4.14772C2.38791 3.68043 2.60452 3.34701 2.95449 2.99646C3.30446 2.64591 3.63746 2.42892 4.10542 2.2478C4.45763 2.11039 4.98803 1.94785 5.96358 1.90349C7.01829 1.85497 7.33512 1.84528 10.006 1.84528C12.6769 1.84528 12.994 1.85577 14.0496 1.90349C15.0252 1.94793 15.5545 2.11167 15.9078 2.2478C16.3749 2.42892 16.7083 2.64639 17.0587 2.99646C17.4092 3.34653 17.6253 3.68043 17.8072 4.14772C17.9445 4.50004 18.107 5.03059 18.1514 6.00641C18.1999 7.06231 18.2096 7.37835 18.2096 10.0512C18.2096 12.7241 18.1999 13.0401 18.1514 14.096C18.1069 15.0718 17.9436 15.6022 17.8072 15.9547C17.6253 16.422 17.4087 16.7554 17.0587 17.1052C16.7087 17.4549 16.3749 17.6719 15.9078 17.8538C15.5556 17.9912 15.0252 18.1538 14.0496 18.1981C12.9949 18.2466 12.6781 18.2563 10.006 18.2563C7.33392 18.2563 7.01797 18.2466 5.96358 18.1981ZM5.88073 0.10285C4.81553 0.151373 4.08765 0.320323 3.45199 0.567743C2.79367 0.82325 2.23638 1.16603 1.67949 1.72221C1.12259 2.27838 0.780788 2.83672 0.525355 3.49522C0.278007 4.13147 0.109105 4.85915 0.0605963 5.92466C0.0112868 6.99185 0 7.33303 0 10.0511C0 12.7692 0.0112868 13.1104 0.0605963 14.1776C0.109105 15.2432 0.278007 15.9708 0.525355 16.607C0.780788 17.2651 1.12267 17.8241 1.67949 18.38C2.2363 18.936 2.79367 19.2783 3.45199 19.5345C4.08885 19.7819 4.81553 19.9509 5.88073 19.9994C6.94817 20.0479 7.28869 20.06 10.006 20.06C12.7233 20.06 13.0644 20.0487 14.1313 19.9994C15.1966 19.9509 15.9239 19.7819 16.56 19.5345C17.2179 19.2783 17.7756 18.9362 18.3325 18.38C18.8894 17.8239 19.2305 17.2651 19.4866 16.607C19.734 15.9708 19.9037 15.2431 19.9514 14.1776C19.9999 13.1096 20.0112 12.7692 20.0112 10.0511C20.0112 7.33303 19.9999 6.99185 19.9514 5.92466C19.9029 4.85907 19.734 4.13107 19.4866 3.49522C19.2305 2.83712 18.8885 2.27926 18.3325 1.72221C17.7765 1.16515 17.2179 0.82325 16.5608 0.567743C15.9239 0.320323 15.1965 0.150573 14.1321 0.10285C13.0652 0.0543271 12.7241 0.0422363 10.0068 0.0422363C7.28949 0.0422363 6.94817 0.0535264 5.88073 0.10285Z" fill="black"/>
</svg>
