<svg width="30" height="31" viewBox="0 0 30 31" fill="none" xmlns="http://www.w3.org/2000/svg">
<path fill-rule="evenodd" clip-rule="evenodd" d="M3.81404 0C1.70772 0 0 1.73502 0 3.875V27.125C0 29.265 1.70772 31 3.81404 31H26.186C28.2926 31 30 29.265 30 27.125V3.875C30 1.73502 28.2929 0 26.186 0H3.81404ZM20.272 21.5868C20.6754 21.5868 20.969 21.5998 20.969 21.5998C20.969 21.5998 21.2622 20.7769 21.7887 18.9355C20.8091 18.9355 20.2695 18.2753 20.2695 17.3607V8.52402H9.75911V20.924H12.7529L12.7708 11.624H17.2751L17.2735 17.7738C17.2735 19.0976 17.3448 20.1151 17.9576 20.7622C18.5691 21.4093 19.1222 21.5868 20.272 21.5868Z" fill="black"/>
</svg>
