<svg width="28" height="24" viewBox="0 0 28 24" fill="none" xmlns="http://www.w3.org/2000/svg">
<path d="M16.407 24V15.8072C16.407 11.5663 17.3895 8.09638 19.3544 5.39759C21.3193 2.63454 24.2012 0.835342 28 0V4.33735C25.9041 4.8514 24.3649 5.81526 23.3825 7.22891C22.4 8.57831 21.7778 10.3133 21.5158 12.4337H26.0351V24H16.407ZM0 24V15.8072C0 11.5663 0.949708 8.09638 2.84912 5.39759C4.81403 2.63454 7.69591 0.835342 11.4947 0V4.33735C9.46433 4.8514 7.92515 5.81526 6.87719 7.22891C5.89474 8.57831 5.30526 10.3133 5.10877 12.4337H9.52983V24H0Z" fill="black"/>
</svg>
