<svg width="127" height="45" viewBox="0 0 127 45" fill="none" xmlns="http://www.w3.org/2000/svg">
<path d="M15.5352 11.2638H23.935C26.5257 11.2638 28.6259 13.364 28.6259 15.9546H15.5352V11.2638Z" fill="black"/>
<path d="M36.1611 15.9574L36.1611 22.9336C36.1611 26.3075 33.426 29.0426 30.0521 29.0426L28.6229 29.0426L28.6229 15.9574L36.1611 15.9574Z" fill="black"/>
<path d="M28.626 33.7362L20.2261 33.7362C17.6354 33.7362 15.5353 31.636 15.5353 29.0454L28.626 29.0454L28.626 33.7362Z" fill="black"/>
<path d="M8 29.0426L8 22.0664C8 18.6925 10.7351 15.9574 14.109 15.9574L15.5382 15.9574L15.5382 29.0426L8 29.0426Z" fill="black"/>
<path d="M52.7674 16.082H56.6162V31H52.7674V29.3292C51.8325 30.7215 50.3506 31.4177 48.3218 31.4177C46.6908 31.4177 45.3382 30.8707 44.2641 29.7767C43.2099 28.6827 42.6828 27.171 42.6828 25.2416V16.082H46.5316V24.7643C46.5316 25.7588 46.8002 26.5246 47.3372 27.0616C47.8742 27.5788 48.5903 27.8374 49.4854 27.8374C50.4799 27.8374 51.2756 27.5291 51.8723 26.9125C52.469 26.2958 52.7674 25.3709 52.7674 24.1377V16.082ZM68.6744 19.7816H65.3029V25.9875C65.3029 26.5047 65.4322 26.8826 65.6908 27.1213C65.9494 27.36 66.3273 27.4992 66.8246 27.539C67.3219 27.5589 67.9385 27.549 68.6744 27.5092V31C66.029 31.2984 64.1592 31.0497 63.0652 30.2541C61.9911 29.4585 61.4541 28.0363 61.4541 25.9875V19.7816H58.8584V16.082H61.4541V13.0685L65.3029 11.9049V16.082H68.6744V19.7816ZM74.174 25.1223C74.6912 26.992 76.0935 27.9269 78.3809 27.9269C79.8528 27.9269 80.9667 27.4296 81.7226 26.4351L84.8255 28.2252C83.3536 30.3536 81.1855 31.4177 78.3213 31.4177C75.8548 31.4177 73.8757 30.6718 72.3839 29.18C70.8921 27.6882 70.1462 25.8085 70.1462 23.541C70.1462 21.2933 70.8821 19.4236 72.354 17.9318C73.826 16.4201 75.7156 15.6643 78.0229 15.6643C80.2109 15.6643 82.011 16.4201 83.4232 17.9318C84.8554 19.4435 85.5714 21.3132 85.5714 23.541C85.5714 24.0382 85.5217 24.5654 85.4222 25.1223H74.174ZM74.1144 22.1387H81.7226C81.5038 21.1243 81.0463 20.3684 80.3501 19.8711C79.6738 19.3739 78.8981 19.1252 78.0229 19.1252C76.9886 19.1252 76.1333 19.3938 75.457 19.9308C74.7807 20.448 74.3332 21.1839 74.1144 22.1387ZM101.168 31H96.7222L93.4999 26.4649L90.2478 31H85.8022L91.2622 23.3918L86.0409 16.082H90.4865L93.4999 20.2888L96.5133 16.082H100.929L95.7078 23.362L101.168 31ZM114.75 29.1502C113.219 30.6619 111.349 31.4177 109.141 31.4177C106.933 31.4177 105.063 30.6619 103.532 29.1502C102.02 27.6186 101.264 25.7489 101.264 23.541C101.264 21.3331 102.02 19.4733 103.532 17.9616C105.063 16.4301 106.933 15.6643 109.141 15.6643C111.349 15.6643 113.219 16.4301 114.75 17.9616C116.282 19.4733 117.048 21.3331 117.048 23.541C117.048 25.7489 116.282 27.6186 114.75 29.1502ZM106.247 26.4948C107.023 27.2705 107.987 27.6584 109.141 27.6584C110.295 27.6584 111.259 27.2705 112.035 26.4948C112.811 25.719 113.199 24.7344 113.199 23.541C113.199 22.3475 112.811 21.3629 112.035 20.5872C111.259 19.8115 110.295 19.4236 109.141 19.4236C107.987 19.4236 107.023 19.8115 106.247 20.5872C105.491 21.3629 105.113 22.3475 105.113 23.541C105.491 25.719 106.247 26.4948Z" fill="black"/>
</svg>
